<?xml version="1.0" encoding="UTF-8"?>
<svg version="1.1" xmlns="http://www.w3.org/2000/svg" width="1024" height="1024">
<path d="M0 0 C337.92 0 675.84 0 1024 0 C1024 337.92 1024 675.84 1024 1024 C686.08 1024 348.16 1024 0 1024 C0 686.08 0 348.16 0 0 Z " fill="#0C1225" transform="translate(0,0)"/>
<path d="M0 0 C3.23857278 1.30921027 4.60256422 2.52033613 6.8125 5.1875 C8.38296988 8.90703394 8.60577351 12.01804883 8 16 C6.50753576 19.19813766 4.73024573 21.74457962 2 24 C1.34 24 0.68 24 0 24 C-0.25879131 28.86527666 0.02699377 32.62374789 2.89453125 36.6796875 C4.42081398 38.34518341 5.98071842 39.98071842 7.578125 41.578125 C8.77695312 42.77695312 8.77695312 42.77695312 10 44 C10.91652344 44.86367188 11.83304688 45.72734375 12.77734375 46.6171875 C16.22473879 50.82545174 15.54034159 55.70124334 15.3125 60.875 C15.27866211 62.33679688 15.27866211 62.33679688 15.24414062 63.828125 C15.18550753 66.22035515 15.10351153 68.6093615 15 71 C15.71285156 71.26941406 16.42570313 71.53882813 17.16015625 71.81640625 C33.51452529 78.63260133 47.6790145 91.57224686 60 104 C60.83917969 103.00033203 60.83917969 103.00033203 61.6953125 101.98046875 C72.83617359 89.1738519 86.78809699 78.6059515 102 71 C102.35289785 68.88268515 102.35289785 68.88268515 102.38671875 66.3359375 C102.43892578 65.37816406 102.49113281 64.42039062 102.54492188 63.43359375 C102.63884534 61.41874241 102.71481872 59.40296192 102.77148438 57.38671875 C103.09197001 52.11103207 103.55075843 48.81858363 107.37109375 44.9921875 C108.56521879 43.97627329 109.7747526 42.97815392 111 42 C116.31772745 37.02420278 117.69490512 33.52284975 117.9921875 26.16015625 C117.99605469 25.09087891 117.99605469 25.09087891 118 24 C117.37609375 23.71253906 116.7521875 23.42507813 116.109375 23.12890625 C113.11816753 21.52805633 112.32994745 20.1253765 111 17 C110.42299214 12.7036307 110.52503049 9.14992618 112.1875 5.125 C114.93767363 1.9006585 117.0652044 0.29442542 121.3359375 -0.35546875 C125.75861253 -0.60117292 128.97644943 -0.55309027 132.5 2.3125 C136.14840772 6.23453829 137.4600082 8.50932438 137.3203125 13.9375 C136.65251164 18.23748603 134.05768507 21.03846811 130.9375 23.875 C129 25 129 25 126 25 C126.08121094 25.85722656 126.16242188 26.71445312 126.24609375 27.59765625 C126.75353727 36.78341954 126.75353727 36.78341954 124.65234375 40.17578125 C122.84196753 41.90658049 120.97989529 43.46666792 119 45 C115.26477602 48.14374599 113.18439685 50.34431041 112.62890625 55.33203125 C112.62539038 58.57717851 112.73741207 61.76627828 113 65 C113.76292358 64.65219482 113.76292358 64.65219482 114.54125977 64.29736328 C116.87942293 63.2348756 119.22090596 62.17990363 121.5625 61.125 C122.36236328 60.76019531 123.16222656 60.39539063 123.98632812 60.01953125 C128.6062345 57.94528757 133.09142298 56.25185186 138 55 C137.938125 53.2675 137.938125 53.2675 137.875 51.5 C137.93341954 45.96961699 138.07396902 41.24218293 141.80859375 36.89453125 C143.21982886 35.5143692 144.6562362 34.15945474 146.1171875 32.83203125 C148.20179158 30.99517875 148.20179158 30.99517875 149.5625 28 C150.2740625 27.01 150.2740625 27.01 151 26 C154.5625 25.5625 154.5625 25.5625 158 26 C158.66 26.66 159.32 27.32 160 28 C159.8125 31.5 159.8125 31.5 159 35 C156 37 156 37 153 37 C152.62875 37.928125 152.62875 37.928125 152.25 38.875 C150.79371361 41.35068687 149.62187494 41.95125002 147 43 C147.33 45.64 147.66 48.28 148 51 C148.89585815 50.75092896 148.89585815 50.75092896 149.80981445 50.49682617 C163.13170815 46.82467592 176.29082825 43.7668817 190 42 C191.42119141 41.80277344 191.42119141 41.80277344 192.87109375 41.6015625 C200.29715981 40.69921621 207.41615489 41 215 41 C215 106.01 215 171.02 215 238 C192.13118634 243.19745765 192.13118634 243.19745765 183.70214844 244.49365234 C178.38771849 245.48950776 173.27023215 247.17386912 168.125 248.8125 C166.98313232 249.17142334 165.84126465 249.53034668 164.66479492 249.90014648 C161.43898567 250.92086746 158.21826905 251.95577723 155 253 C153.8560376 253.3702832 153.8560376 253.3702832 152.68896484 253.74804688 C132.26944824 260.44764394 113.8447942 271.20570633 96 283 C109.00115416 280.42767948 109.00115416 280.42767948 121.8125 277.0625 C128.6365626 275.02725326 135.53245102 273.4554827 142.48364258 271.92602539 C153.05724412 269.58820768 163.53803984 266.87940745 174.03292847 264.21536255 C177.34755487 263.37479785 180.66296261 262.53734093 183.97851562 261.70043945 C185.64561912 261.27865969 187.31229495 260.85518556 188.97851562 260.42993164 C202.92625236 256.87281843 216.88510763 253.94060258 231 251 C231.33 189.62 231.66 128.24 232 65 C236.62 65 241.24 65 246 65 C246 72.59 246 80.18 246 88 C258.87 88 271.74 88 285 88 C285.33 86.35 285.66 84.7 286 83 C288.3303686 79.88608717 291.19974947 77.42929051 295.03125 76.515625 C300.96566974 76.28737809 305.00250203 78.26533071 309.375 82.0625 C311.75349056 86.36207909 311.64263248 90.19215701 311 95 C309.20074724 99.59809038 306.38299083 101.80850458 302 104 C297.0556799 104.97265313 293.22998486 104.55551357 289 101.75 C286.02515362 99.51886522 285.98522305 98.94089219 285 95 C272.13 95 259.26 95 246 95 C246 102.59 246 110.18 246 118 C248.371875 117.9175 250.74375 117.835 253.1875 117.75 C253.92508545 117.73420898 254.6626709 117.71841797 255.42260742 117.70214844 C260.25951085 117.45393462 262.45220624 116.15635592 266 113 C270.285698 112.38775743 272.226344 112.49544174 275.875 114.875 C278.3471253 117.3471253 278.90505979 118.3037718 279.375 121.75 C278.97388632 125.22631857 278.08242756 127.26765008 275.6953125 129.859375 C272.94899697 131.70712646 270.41686292 131.63518402 267.18359375 131.6015625 C265 131 265 131 263.20703125 129.0078125 C260.13923948 126.21693645 257.19993427 126.33353335 253.25 126.25 C250.8575 126.1675 248.465 126.085 246 126 C246 133.26 246 140.52 246 148 C262.83 148 279.66 148 297 148 C297.33 146.68 297.66 145.36 298 144 C300.46959407 140.79540769 303.28042881 138.36680273 307.2890625 137.51171875 C311.95525915 137.36346167 315.31765427 137.94891354 319 141 C322.03063475 144.45155624 323.86936155 146.64136011 324.3125 151.25 C323.87731992 156.47216101 321.83177331 159.39025982 317.9375 162.8125 C313.91467233 165.27810406 309.59883585 165.89958946 305 165 C302.23771192 163.37854218 299.98901033 161.51364784 298 159 C297.67 157.68 297.34 156.36 297 155 C280.17 155 263.34 155 246 155 C246 162.26 246 169.52 246 177 C251.28 177 256.56 177 262 177 C262.66 175.68 263.32 174.36 264 173 C267.10048928 171.44975536 269.57894218 171.71007985 273 172 C275.75329021 173.79562405 277.52627461 175.05254922 279 178 C279.55358359 182.05961302 279.12772011 183.77751981 277.0625 187.375 C274.70092403 189.93899677 272.89459225 190.46526636 269.4375 190.625 C267.18359375 190.6015625 267.18359375 190.6015625 265 190 C264.40832031 189.34257812 263.81664062 188.68515625 263.20703125 188.0078125 C260.13923948 185.21693645 257.19993427 185.33353335 253.25 185.25 C250.8575 185.1675 248.465 185.085 246 185 C246 192.59 246 200.18 246 208 C257.88 208 269.76 208 282 208 C282.66 206.35 283.32 204.7 284 203 C287.02918089 199.68427497 290.48467408 197.68347106 295 197.4375 C299.51605761 197.75318558 302.35342536 199.35444585 306 202 C308.96902714 205.44790249 309.48661782 208.46795563 309.28125 213.01171875 C308.63197772 217.60171309 306.78376963 220.27357937 303.4375 223.375 C298.83846457 225.54908948 295.00196933 225.95004937 290 225 C285.92502031 222.88735684 284.05270746 220.10541492 282 216 C264.18 215.505 264.18 215.505 246 215 C246 230.51 246 246.02 246 262 C229.8861184 266.60396617 229.8861184 266.60396617 223.0625 268.1875 C222.20503174 268.38980225 221.34756348 268.59210449 220.46411133 268.80053711 C215.27364574 270.01967353 210.07724121 271.21207853 204.87835693 272.39468384 C179.55076408 278.15673041 154.34171754 284.33280717 129.15942383 290.69921875 C125.16453879 291.70836711 121.1667199 292.70507003 117.16738892 293.69642639 C111.30434582 295.15108045 105.48440125 296.67746506 99.6875 298.375 C91.82880059 300.60289448 83.90086773 302.4976805 75.9375 304.3125 C74.22469849 304.71251221 74.22469849 304.71251221 72.47729492 305.12060547 C66.17359039 306.52862876 60.46176365 307.39671598 54 307 C53.67 306.67 53.34 306.34 53 306 C50.98767242 305.52490913 48.96429082 305.09651416 46.9375 304.6875 C41.93996188 303.64829839 36.98470018 302.52927721 32.03515625 301.27734375 C30.62445495 300.92185868 29.21372728 300.56647828 27.80297852 300.21118164 C27.03704376 300.01783234 26.27110901 299.82448303 25.48196411 299.62527466 C20.81263834 298.44894376 16.14042959 297.28412789 11.46875 296.1171875 C9.3576565 295.58939353 7.24657275 295.06156057 5.13549805 294.53369141 C0.61107198 293.40255332 -3.91352696 292.27210978 -8.43823242 291.14208984 C-19.03058832 288.49617974 -29.62190229 285.8465654 -40.20703125 283.171875 C-56.52045825 279.05463394 -72.84181514 275.05837329 -89.26782227 271.4140625 C-117.77207349 265.0759755 -117.77207349 265.0759755 -127 262 C-127 246.49 -127 230.98 -127 215 C-138.88 215 -150.76 215 -163 215 C-163.33 216.32 -163.66 217.64 -164 219 C-166.51291088 222.35054784 -169.35809143 224.62966416 -173.4765625 225.55859375 C-177.81831604 225.77502557 -181.02009733 225.48117055 -184.5 222.75 C-188.52133193 218.32653488 -189.46160527 215.13540039 -189.31640625 209.25 C-188.67698796 204.70302551 -186.18835099 202.01858656 -182.8125 199.125 C-178.77643403 197.51057361 -175.27444209 197.07362774 -171 198 C-167.6262899 200.05056357 -164.77956876 202.44086248 -163 206 C-145.18 206.495 -145.18 206.495 -127 207 C-127 199.74 -127 192.48 -127 185 C-129.3925 185.0825 -131.785 185.165 -134.25 185.25 C-134.99668945 185.26579102 -135.74337891 185.28158203 -136.51269531 185.29785156 C-141.2346781 185.53915784 -142.90890499 186.57963617 -146 190 C-149.08751255 190.78818542 -151.88723132 190.64539974 -155 190 C-157.70879965 187.8858149 -158.7230135 186.44616111 -159.37109375 183.0625 C-159.59802995 179.43152081 -159.14457992 177.28915983 -157.5 174 C-154.65800688 171.7264055 -152.71191552 171.44077916 -149.09765625 171.43359375 C-147 172 -147 172 -144.734375 173.98828125 C-141.27263199 176.53513503 -138.32700467 176.66137707 -134.1875 176.75 C-131.815625 176.8325 -129.44375 176.915 -127 177 C-127 169.74 -127 162.48 -127 155 C-143.83 155 -160.66 155 -178 155 C-178.66 156.65 -179.32 158.3 -180 160 C-184.32439984 163.89195985 -186.99892014 165.36015437 -192.90234375 165.28515625 C-197.08778919 164.71618508 -199.88351 162.23668629 -202.6328125 159.19140625 C-205.1811305 155.10681654 -204.82814534 150.62326808 -204 146 C-202.01072609 142.51420809 -199.60837388 139.80418694 -196 138 C-191.71801953 137.38157869 -187.69282537 137.06864267 -183.8203125 139.19921875 C-180.30526563 142.09439221 -179.14321924 143.42712303 -178 148 C-161.17 148 -144.34 148 -127 148 C-127 140.74 -127 133.48 -127 126 C-130.5578125 126.12375 -130.5578125 126.12375 -134.1875 126.25 C-134.92508545 126.26579102 -135.6626709 126.28158203 -136.42260742 126.29785156 C-141.2718943 126.54670086 -143.4279242 127.86519555 -147 131 C-150.04102581 131.8211336 -151.75444696 131.46365043 -155 131 C-158.06937427 128.40283716 -158.87954702 126.38970081 -160.0625 122.5625 C-159.99634733 118.79179797 -159.36727329 116.8604494 -156.73046875 114.10546875 C-153.94926059 112.32876015 -151.41529066 112.36483233 -148.18359375 112.3984375 C-146 113 -146 113 -144.20703125 114.9921875 C-141.13923948 117.78306355 -138.19993427 117.66646665 -134.25 117.75 C-131.8575 117.8325 -129.465 117.915 -127 118 C-127 110.41 -127 102.82 -127 95 C-139.87 95 -152.74 95 -166 95 C-166.66 96.65 -167.32 98.3 -168 100 C-172.21915437 103.90271779 -175.94708539 104.73793107 -181.5234375 104.52734375 C-185.66304097 103.64588244 -188.40044667 101.26732849 -191 98 C-192.35698258 93.92905226 -192.52387231 90.25646256 -192 86 C-189.80613412 81.61226825 -187.55479418 78.90665803 -183 77 C-177.76969824 76.42942163 -174.42160854 77.15051894 -170 80 C-167.95911288 82.26152356 -166.35925488 84.28149023 -165 87 C-152.46 87.33 -139.92 87.66 -127 88 C-127 80.41 -127 72.82 -127 65 C-122.38 65 -117.76 65 -113 65 C-113 126.38 -113 187.76 -113 251 C-106.4 252.32 -99.8 253.64 -93 255 C-87.9484674 256.13749967 -82.9100243 257.29530687 -77.875 258.5 C-76.47670174 258.8317869 -75.07834317 259.16331975 -73.67993164 259.49462891 C-57.72641076 263.28094432 -41.78575056 267.12234391 -25.84521484 270.96289062 C-24.7967186 271.21523468 -23.74822235 271.46757874 -22.66795349 271.72756958 C-20.7033288 272.20044751 -18.73885015 272.67393281 -16.77455139 273.14816284 C-11.82580912 274.33873557 -6.8722359 275.48520418 -1.89518738 276.55181885 C0.79577985 277.18818906 3.37787182 278.12595727 6 279 C8.62449569 279.57791925 11.23663577 280.12391532 13.875 280.625 C14.56335938 280.7590625 15.25171875 280.893125 15.9609375 281.03125 C17.63993755 281.35772223 19.31987536 281.67936553 21 282 C4.5439818 271.12360047 -11.87120347 262.40682682 -30.24267578 255.10668945 C-31.9733286 254.41206849 -33.69705065 253.69963968 -35.40966797 252.96166992 C-42.84182048 249.80473799 -50.55462914 247.86082378 -58.375 245.9375 C-59.07577667 245.76258026 -59.77655334 245.58766052 -60.49856567 245.40744019 C-70.81912654 242.83888825 -81.0875247 240.77791289 -91.65234375 239.47265625 C-95 239 -95 239 -96 238 C-96.09775474 235.45803811 -96.12995277 232.94327039 -96.12025452 230.40086365 C-96.12110894 229.59554941 -96.12196337 228.79023517 -96.12284368 227.96051747 C-96.12450095 225.24115297 -96.11897311 222.52184912 -96.11352539 219.80249023 C-96.11324355 217.86148073 -96.1134012 215.92047111 -96.1139679 213.97946167 C-96.11425598 208.69249016 -96.10835756 203.40554112 -96.10139394 198.11857486 C-96.09516214 192.59988947 -96.09455674 187.08120362 -96.09336853 181.56251526 C-96.0902547 171.10420842 -96.08204061 160.64591198 -96.07201904 150.18760973 C-96.06085951 138.28454959 -96.05534786 126.38148897 -96.05032361 114.47842491 C-96.03985804 89.98561083 -96.0222576 65.492806 -96 41 C-93.64050847 40.98190438 -91.28115906 40.96881634 -88.92163086 40.95849609 C-87.60770859 40.95079193 -86.29378632 40.94308777 -84.94004822 40.93515015 C-79.06977424 41.03176988 -73.36170384 41.75486794 -67.5625 42.625 C-66.37688477 42.79741211 -65.19126953 42.96982422 -63.96972656 43.14746094 C-52.11225548 44.96853116 -40.55273566 47.79910322 -29 51 C-28.59596758 46.20202815 -28.59596758 46.20202815 -30.35546875 41.890625 C-30.96003906 41.34921875 -31.56460938 40.8078125 -32.1875 40.25 C-32.82171875 39.66863281 -33.4559375 39.08726562 -34.109375 38.48828125 C-36.08167777 36.84532378 -36.08167777 36.84532378 -38.9375 35.4375 C-39.618125 34.963125 -40.29875 34.48875 -41 34 C-41.53988198 30.76070812 -41.53505204 28.92147852 -39.875 26.0625 C-38 25 -38 25 -35.1875 24.8125 C-31.12161588 26.32724114 -29.87872884 28.30806602 -27.51953125 31.84375 C-26.06228848 33.91161121 -24.52598287 35.40498739 -22.6875 37.125 C-18.31196921 42.00320273 -19.0172231 48.79107102 -19 55 C-18.35450195 55.26216309 -17.70900391 55.52432617 -17.04394531 55.79443359 C-14.1119585 56.98631101 -11.18097185 58.18062897 -8.25 59.375 C-6.72632813 59.99375 -6.72632813 59.99375 -5.171875 60.625 C-4.1921875 61.02460938 -3.2125 61.42421875 -2.203125 61.8359375 C-1.30239258 62.20251465 -0.40166016 62.5690918 0.52636719 62.94677734 C2.73377118 63.88664517 4.86894582 64.89968019 7 66 C7.42082391 59.93230644 7.45531112 54.45535719 3.5546875 49.53515625 C0.86659817 46.51257109 -2.02575623 43.73883939 -5 41 C-7 39 -7 39 -7.1953125 35.7421875 C-7.17210937 34.46601563 -7.14890625 33.18984375 -7.125 31.875 C-7.10695313 30.59367187 -7.08890625 29.31234375 -7.0703125 27.9921875 C-7.04710937 27.00476563 -7.02390625 26.01734375 -7 25 C-7.76828125 24.88398438 -8.5365625 24.76796875 -9.328125 24.6484375 C-13.0217681 23.75202704 -14.56311777 21.84302927 -17 19 C-18.20643566 15.38069302 -18.32268559 12.80768995 -18 9 C-13.55157464 0.73863861 -9.01568212 -1.06841687 0 0 Z " fill="#6553C4" transform="translate(454,248)"/>
<path d="M0 0 C47.33268415 3.6409757 101.58277424 22.07414623 133.49609375 59.07421875 C136.33321388 62.70720635 136.12358732 65.19101612 136.12025452 69.77029419 C136.12153615 70.82641397 136.12153615 70.82641397 136.12284368 71.90386951 C136.12449721 74.27464292 136.11897919 76.64534634 136.11352539 79.01611328 C136.11324347 80.710968 136.11340136 82.40582284 136.1139679 84.10067749 C136.11425566 88.71199287 136.10836228 93.32328241 136.10139394 97.93459177 C136.09515695 102.74992143 136.09455633 107.56525164 136.09336853 112.38058472 C136.09025624 121.50367702 136.08204421 130.62675739 136.07201904 139.74984443 C136.06085475 150.13421398 136.05534666 160.5185841 136.05032361 170.90295815 C136.03986152 192.26864544 136.02226404 213.63432197 136 235 C135.28907196 234.38987564 135.28907196 234.38987564 134.56378174 233.76742554 C133.93848572 233.23106476 133.3131897 232.69470398 132.66894531 232.14208984 C131.74145477 231.34634048 131.74145477 231.34634048 130.79522705 230.53451538 C93.86386078 198.96650311 48.37674543 178.04709318 0 172 C0 115.24 0 58.48 0 0 Z " fill="#0E1328" transform="translate(371,303)"/>
<path d="M0 0 C0 56.43 0 112.86 0 171 C-7.26 172.65 -14.52 174.3 -22 176 C-62.73510206 186.29365157 -96.85618863 203.07568212 -129 230 C-130.99935497 231.6674415 -132.99977449 233.33360263 -135 235 C-135.14022606 212.71224356 -135.24599855 190.42455996 -135.31087303 168.13645172 C-135.34179747 157.7874323 -135.38395108 147.43868713 -135.45263672 137.08984375 C-135.51248187 128.06868603 -135.55115942 119.04772696 -135.56453097 110.02637625 C-135.57234608 105.25051371 -135.59068378 100.47521941 -135.63438034 95.69953918 C-135.6752023 91.20145173 -135.68764981 86.70416484 -135.67864609 82.20590973 C-135.68029246 80.55796707 -135.69217081 78.90999677 -135.71523285 77.26221466 C-135.91556485 62.20595308 -135.91556485 62.20595308 -130.48653603 56.39377594 C-129.75070069 55.70385685 -129.75070069 55.70385685 -129 55 C-127.99646484 53.83017578 -127.99646484 53.83017578 -126.97265625 52.63671875 C-98.72533867 23.81174642 -56.49206799 8.46325919 -17.5625 1.625 C-16.60996338 1.45734131 -15.65742676 1.28968262 -14.67602539 1.11694336 C-9.59312168 0.27516259 -5.25647101 0 0 0 Z " fill="#0D1328" transform="translate(655,303)"/>
<path d="M0 0 C10.74134204 7.6854523 20.67091117 16.62132164 30.43652344 25.49072266 C34.62648763 29.29171623 38.95406209 32.88282434 43.35839844 36.43212891 C45.86425773 38.48761079 48.30304014 40.6022689 50.73632812 42.74243164 C66.7707073 56.72156724 85.11119909 70.47907872 107.20556641 69.07275391 C114.84792157 68.06473 121.75513234 63.27150286 126.85058594 57.66650391 C133.81349499 48.38910833 134.23373598 38.01739317 133.24902344 26.80322266 C132.44753823 23.34138596 131.2098519 20.75026662 129.24902344 17.80322266 C128.75144531 17.02462891 128.25386719 16.24603516 127.74121094 15.44384766 C122.65798455 8.20911614 116.0964268 3.85911702 107.39746094 2.08837891 C91.37793855 -0.03784861 78.03371174 6.68701472 65.37402344 15.99072266 C60.27296011 19.9048719 55.35806355 24.02078568 50.52490234 28.26098633 C48.09385515 30.37075813 46.33864337 31.77334935 43.24902344 32.80322266 C39.652676 29.309628 36.41450377 25.69224135 33.24902344 21.80322266 C48.04162309 5.49343329 70.99278946 -13.27101748 93.80761719 -14.66943359 C110.6530719 -15.12041205 123.74494417 -11.72772894 136.43652344 -0.11083984 C146.99605062 11.04038498 150.89398596 24.21071977 150.56152344 39.21728516 C150.04830882 49.55428292 146.14042351 58.41873641 140.24902344 66.80322266 C139.58966797 67.75648438 139.58966797 67.75648438 138.91699219 68.72900391 C132.19551965 77.46498119 120.66368303 83.51409281 109.90136719 85.38525391 C86.96186031 88.01041672 69.09402768 78.60819021 51.44506836 64.83959961 C46.04794316 60.54042981 40.78036728 56.0838843 35.62524414 51.49731445 C33.16440538 49.32528736 31.40026039 47.85363498 28.24902344 46.80322266 C27.52585937 47.53154297 26.80269531 48.25986328 26.05761719 49.01025391 C15.08647646 59.92035908 3.4808079 68.98736645 -9.93847656 76.67822266 C-10.86309692 77.21394897 -10.86309692 77.21394897 -11.80639648 77.76049805 C-21.18167495 82.96980535 -29.87368519 85.52493895 -40.62597656 85.36572266 C-41.67736816 85.35476563 -42.72875977 85.34380859 -43.81201172 85.33251953 C-56.91944723 84.96769219 -66.14507224 80.86603698 -75.75097656 71.80322266 C-76.39808594 71.19736328 -77.04519531 70.59150391 -77.71191406 69.96728516 C-88.10948225 59.20648314 -91.29499807 45.05456656 -91.06347656 30.58447266 C-90.07120851 18.57802921 -83.96686753 7.4809408 -75.75097656 -1.19677734 C-51.6451953 -20.95456623 -24.56535169 -16.79020552 0 0 Z " fill="#3550B9" transform="translate(483.7509765625,581.19677734375)"/>
<path d="M0 0 C0.69649658 0.35408936 1.39299316 0.70817871 2.1105957 1.07299805 C12.19207085 6.32718326 20.67397463 13.4769716 29.2421875 20.859375 C31.85066651 23.08730668 34.49554561 25.24925004 37.1875 27.375 C35.77038416 35.49824873 26.36019982 40.7709521 20.125 45.3125 C19.29444092 45.92005127 18.46388184 46.52760254 17.6081543 47.15356445 C10.72633105 52.11814286 3.74974846 56.51794958 -3.8125 60.375 C-4.49699219 60.75269531 -5.18148437 61.13039063 -5.88671875 61.51953125 C-13.59560482 65.18167019 -25.28077116 64.66482102 -33.1875 61.9375 C-42.69071678 57.37018671 -49.03703484 50.10340791 -52.8125 40.375 C-55.63589051 31.90482847 -55.07590824 20.70562684 -51.25 12.6875 C-46.60971525 4.81208714 -40.55563223 -1.45579386 -31.6875 -4.30859375 C-20.2843804 -7.17917073 -10.34300165 -5.28948426 0 0 Z " fill="#0C1226" transform="translate(462.8125,587.625)"/>
<path d="M0 0 C7.43434576 0.41324319 13.97575567 1.95443162 21 4.375 C22.03326416 4.7265918 23.06652832 5.07818359 24.13110352 5.44042969 C48.97726934 14.08419842 72.92987224 25.41629395 96 38 C96 57.14 96 76.28 96 96 C92.44428746 95.28885749 90.31020887 94.84362993 87.22973633 93.36108398 C86.52742386 93.02660751 85.82511139 92.69213104 85.10151672 92.34751892 C84.35258652 91.98404861 83.60365631 91.62057831 82.83203125 91.24609375 C82.03834641 90.86695328 81.24466156 90.48781281 80.42692566 90.09718323 C77.88620929 88.88257815 75.34916558 87.6605395 72.8125 86.4375 C69.50810768 84.84951548 66.2019695 83.26522397 62.89453125 81.68359375 C62.08114288 81.29400482 61.26775452 80.90441589 60.42971802 80.50302124 C53.83463929 77.36000112 47.17857652 74.36818328 40.48017883 71.45225525 C35.09963583 69.09963583 35.09963583 69.09963583 34 68 C33.90646837 66.31198015 33.88255209 64.62004793 33.88647461 62.92944336 C33.88655014 61.84839828 33.88662567 60.76735321 33.88670349 59.65354919 C33.89186478 58.4775264 33.89702606 57.3015036 33.90234375 56.08984375 C33.9037587 54.89267227 33.90517365 53.69550079 33.90663147 52.46205139 C33.91225021 48.62050934 33.92480589 44.77902457 33.9375 40.9375 C33.94251259 38.34049563 33.94707591 35.74349035 33.95117188 33.14648438 C33.96222573 26.76430321 33.97898208 20.3821557 34 14 C33.27677048 13.80460129 32.55354095 13.60920258 31.80839539 13.40788269 C26.81849323 12.05441683 21.83845431 10.69039352 16.89453125 9.17578125 C15.39116211 8.71655273 15.39116211 8.71655273 13.85742188 8.24804688 C12.85259766 7.93931641 11.84777344 7.63058594 10.8125 7.3125 C9.76513672 6.99216797 8.71777344 6.67183594 7.63867188 6.34179688 C5.09199125 5.56267541 2.54578006 4.78205799 0 4 C0 2.68 0 1.36 0 0 Z " fill="#13152C" transform="translate(391,328)"/>
<path d="M0 0 C4.95 0 9.9 0 15 0 C16.72214054 3.44428108 17.58108076 5.99497703 18.40234375 9.69140625 C18.65306641 10.80193359 18.90378906 11.91246094 19.16210938 13.05664062 C19.41798828 14.21357422 19.67386719 15.37050781 19.9375 16.5625 C21.59669369 24.0012891 23.30874704 31.38438384 25.43310547 38.70605469 C26.12769408 41.51671559 26.23362107 44.11867351 26 47 C26.66 47 27.32 47 28 47 C28.0825 45.906875 28.165 44.81375 28.25 43.6875 C28.79990881 39.33342748 30.18604339 35.613725 31.7578125 31.53515625 C33.72119079 25.9475545 35.24826051 20.23697189 36.80541992 14.5246582 C38.20390939 9.47671477 39.80862477 4.7599011 42 0 C46.95 0 51.9 0 57 0 C59.34301233 7.66374351 61.67731167 15.33007113 64 23 C64.26603027 23.87817383 64.53206055 24.75634766 64.80615234 25.66113281 C65.50030656 27.96025991 66.1888871 30.26096227 66.875 32.5625 C67.07762451 33.23273193 67.28024902 33.90296387 67.48901367 34.59350586 C68.60825009 38.37340443 69.43495905 42.09881303 70 46 C70.66 46 71.32 46 72 46 C72.10376953 45.30704834 72.20753906 44.61409668 72.31445312 43.90014648 C73.63439658 35.51174014 75.4838815 27.30834031 77.5 19.0625 C77.8114945 17.76244082 78.12269374 16.46231085 78.43359375 15.16210938 C79.70802969 9.90847967 80.98660746 5.03348135 83 0 C88.28 0 93.56 0 99 0 C98.608125 1.423125 98.21625 2.84625 97.8125 4.3125 C96.41151719 9.4516192 95.04292849 14.59872912 93.6875 19.75 C93.47649658 20.55139404 93.26549316 21.35278809 93.0480957 22.1784668 C91.8607479 26.69687523 90.68440914 31.21793246 89.51953125 35.7421875 C87.18354337 44.79790341 84.82311206 53.83859079 82.1875 62.8125 C81.98060547 63.51777832 81.77371094 64.22305664 81.56054688 64.94970703 C80.13435604 69.73128792 80.13435604 69.73128792 79 72 C74.05 72 69.1 72 64 72 C61.71859939 65.26674775 59.60894042 58.49544906 57.5625 51.6875 C55.39799755 44.50146624 53.19159359 37.36011959 50.62890625 30.3046875 C49.94010599 27.78051265 49.88414191 25.60448987 50 23 C49.34 23 48.68 23 48 23 C47.773125 24.299375 47.54625 25.59875 47.3125 26.9375 C45.90835015 33.93861081 43.80617877 40.72811573 41.73828125 47.55419922 C40.94226154 50.19127775 40.15780248 52.83162539 39.375 55.47265625 C38.83350245 57.29432111 38.29183876 59.1159366 37.75 60.9375 C37.36279785 62.24340088 37.36279785 62.24340088 36.96777344 63.57568359 C36.60474121 64.78925537 36.60474121 64.78925537 36.234375 66.02734375 C36.02006836 66.74656006 35.80576172 67.46577637 35.58496094 68.20678711 C35 70 35 70 34 72 C28.72 72 23.44 72 18 72 C17.55269531 70.25976562 17.10539062 68.51953125 16.64453125 66.7265625 C12.66385544 51.23656054 12.66385544 51.23656054 8.4375 35.8125 C6.39967839 28.59286249 4.52124351 21.33654696 2.6875 14.0625 C2.4205835 13.01231689 2.15366699 11.96213379 1.87866211 10.88012695 C1.6338208 9.90003662 1.38897949 8.91994629 1.13671875 7.91015625 C0.91717529 7.03496338 0.69763184 6.15977051 0.47143555 5.25805664 C0 3 0 3 0 0 Z " fill="#F7F7F8" transform="translate(281,707)"/>
<path d="M0 0 C4.95 0 9.9 0 15 0 C15 24.09 15 48.18 15 73 C10.38 73 5.76 73 1 73 C1 71.02 1 69.04 1 67 C0.34 67 -0.32 67 -1 67 C-1 67.66 -1 68.32 -1 69 C-6.57354515 73.24651059 -11.81702561 75.53909459 -18.921875 75.30859375 C-25.10355167 74.390638 -29.90440082 70.96242572 -33.6796875 66.09375 C-38.99907444 57.65827249 -40.12566761 48.81263789 -39 39 C-37.2491079 32.0432469 -34.16737783 26.0446596 -28.2890625 21.75 C-22.78046595 18.51229427 -17.26313822 18.07280102 -11 19 C-7.05809788 20.36720754 -3.95208067 22.04791933 -1 25 C-0.67 16.75 -0.34 8.5 0 0 Z " fill="#F5F6F7" transform="translate(666,706)"/>
<path d="M0 0 C4.95 0 9.9 0 15 0 C15 8.58 15 17.16 15 26 C17.97 24.02 20.94 22.04 24 20 C29.5921233 18.71286629 35.88676931 19.52211218 41.15234375 21.8359375 C46.82233211 25.40815004 50.77403788 30.8928252 52.56640625 37.31640625 C54.15384398 47.14135869 54.38621915 57.85929319 48.41796875 66.21484375 C44.42218835 71.02893212 40.91884779 74.57835234 34.51171875 75.50390625 C26.96803932 75.61948867 21.92779459 75.54523835 16.22265625 70.3125 C15.81917969 69.879375 15.41570312 69.44625 15 69 C14.67 70.65 14.34 72.3 14 74 C9.38 74 4.76 74 0 74 C0 49.58 0 25.16 0 0 Z " fill="#F6F7F7" transform="translate(443,705)"/>
<path d="M0 0 C17.82 0 35.64 0 54 0 C54 4.29 54 8.58 54 13 C41.46 13 28.92 13 16 13 C16 17.95 16 22.9 16 28 C27.55 28 39.1 28 51 28 C51 32.62 51 37.24 51 42 C39.45 42 27.9 42 16 42 C16 47.61 16 53.22 16 59 C28.87 59 41.74 59 55 59 C55 63.29 55 67.58 55 72 C36.85 72 18.7 72 0 72 C0 48.24 0 24.48 0 0 Z " fill="#F5F5F6" transform="translate(564,707)"/>
<path d="M0 0 C6.26078007 3.29696125 10.604551 7.68163556 13.5625 14.125 C15.125 19.4375 15.125 19.4375 15.125 31.4375 C2.915 31.4375 -9.295 31.4375 -21.875 31.4375 C-18.84660542 39.14808562 -18.84660542 39.14808562 -14.875 41.4375 C-11.15948766 42.1098308 -7.3660345 42.42485171 -4.12890625 40.28125 C-3.63261719 39.8171875 -3.13632812 39.353125 -2.625 38.875 C0.125 36.4375 0.125 36.4375 2.5625 36.4375 C5.79054634 37.6972254 8.96546922 39.01261357 12.125 40.4375 C11.56954547 44.14597582 10.19288773 45.65776123 7.375 48.0625 C6.69953125 48.65289063 6.0240625 49.24328125 5.328125 49.8515625 C-1.68863471 54.9026342 -10.58819234 54.23587592 -18.875 53.4375 C-25.58334994 51.87188805 -30.10585595 47.01144583 -33.875 41.4375 C-37.69395276 34.40900183 -37.90491912 26.22573133 -36.875 18.4375 C-34.32760461 10.42206908 -30.35930127 4.44643209 -22.875 0.4375 C-15.86687702 -2.90966321 -7.19860687 -2.8819165 0 0 Z " fill="#F5F6F6" transform="translate(417.875,726.5625)"/>
<path d="M0 0 C14.85 0 29.7 0 45 0 C45 14 45 14 42.19140625 18.140625 C41.01602859 19.21577666 39.80510816 20.25331115 38.5625 21.25 C37.35454656 22.3166649 36.14747102 23.38432506 34.94140625 24.453125 C33.97074219 25.29359375 33.00007812 26.1340625 32 27 C31.67 27.66 31.34 28.32 31 29 C31.680625 29.04125 32.36125 29.0825 33.0625 29.125 C38.31924459 30.69083881 41.87057833 34.13684731 44.68359375 38.77734375 C47.18941782 44.91177954 47.0063299 52.04430073 45.37890625 58.44140625 C42.6622954 64.61113133 37.38691033 69.5942907 31.1953125 72.1640625 C24.31420477 73.9642545 16.5841804 74.43457725 9.90625 71.76171875 C7.44330571 70.30206206 5.21040395 68.81695205 3 67 C2.09507812 66.28263672 2.09507812 66.28263672 1.171875 65.55078125 C0 64 0 64 0.05859375 62.015625 C1.27279651 59.41592117 2.7215485 58.38495026 5.0625 56.75 C6.16271484 55.96882812 6.16271484 55.96882812 7.28515625 55.171875 C7.85105469 54.78515625 8.41695312 54.3984375 9 54 C11.22695746 55.05608292 12.89994765 55.90365329 14.6875 57.625 C18.26345195 59.7512417 21.93343952 59.38943121 26 59 C27.485 58.505 27.485 58.505 29 58 C30.66057025 53.64950017 30.56995914 48.56727255 30 44 C28.11484777 41.42362529 26.80665143 40.40332572 24 39 C22.29297265 38.93003986 20.58331997 38.91559846 18.875 38.9375 C17.96492187 38.94652344 17.05484375 38.95554687 16.1171875 38.96484375 C15.41851563 38.97644531 14.71984375 38.98804688 14 39 C12.93020081 29.76236891 12.93020081 29.76236891 15.41796875 25.6640625 C17.20230802 23.67808147 19.07795492 21.85172636 21 20 C22.32 18.35 23.64 16.7 25 15 C16.75 14.67 8.5 14.34 0 14 C0 9.38 0 4.76 0 0 Z " fill="#F6F6F7" transform="translate(505,707)"/>
<path d="M0 0 C4.95 0 9.9 0 15 0 C15.01458252 1.06436279 15.02916504 2.12872559 15.04418945 3.2253418 C15.1022978 7.18596469 15.17952945 11.14602648 15.26245117 15.10620117 C15.29564169 16.81802238 15.32369189 18.52995148 15.34643555 20.24194336 C15.38009032 22.70733479 15.43240974 25.17174281 15.48828125 27.63671875 C15.49467117 28.39836838 15.5010611 29.16001801 15.50764465 29.94474792 C15.6312449 34.44293556 16.20720447 37.42393767 19 41 C22.10048928 42.55024464 24.57894218 42.28992015 28 42 C30.75329021 40.20437595 32.52627461 38.94745078 34 36 C34.15676775 33.30344554 34.25836315 30.62870023 34.31640625 27.9296875 C34.33718735 27.13345978 34.35796844 26.33723206 34.37937927 25.51687622 C34.44484149 22.96967315 34.50374415 20.42236575 34.5625 17.875 C34.6056884 16.14972873 34.64930279 14.42446807 34.69335938 12.69921875 C34.80051945 8.46625315 34.90179623 4.23318247 35 0 C39.95 0 44.9 0 50 0 C50 17.49 50 34.98 50 53 C45.38 53 40.76 53 36 53 C36 51.02 36 49.04 36 47 C35.34 47 34.68 47 34 47 C33.67 47.99 33.34 48.98 33 50 C27.89221758 53.59774357 22.45113501 55.82943274 16.16796875 55.41796875 C10.75741392 54.37485277 7.08892586 52.34682935 3.625 48.0625 C0.38965019 41.96510997 -0.27825267 37.58445765 -0.1953125 30.76171875 C-0.1924826 29.88095169 -0.18965271 29.00018463 -0.18673706 28.09272766 C-0.17557833 25.29084455 -0.15048171 22.48928584 -0.125 19.6875 C-0.11496463 17.78320775 -0.10583975 15.87891048 -0.09765625 13.97460938 C-0.07565309 9.31628203 -0.04115294 4.65819594 0 0 Z " fill="#F5F5F6" transform="translate(693,726)"/>
<path d="M0 0 C7.43434576 0.41324319 13.97575567 1.95443162 21 4.375 C22.03326416 4.7265918 23.06652832 5.07818359 24.13110352 5.44042969 C48.97726934 14.08419842 72.92987224 25.41629395 96 38 C96 57.14 96 76.28 96 96 C92.44428746 95.28885749 90.31020887 94.84362993 87.22973633 93.36108398 C86.52742386 93.02660751 85.82511139 92.69213104 85.10151672 92.34751892 C84.35258652 91.98404861 83.60365631 91.62057831 82.83203125 91.24609375 C82.03834641 90.86695328 81.24466156 90.48781281 80.42692566 90.09718323 C77.88620929 88.88257815 75.34916558 87.6605395 72.8125 86.4375 C69.50810768 84.84951548 66.2019695 83.26522397 62.89453125 81.68359375 C62.08114288 81.29400482 61.26775452 80.90441589 60.42971802 80.50302124 C53.83463929 77.36000112 47.17857652 74.36818328 40.48017883 71.45225525 C35.09963583 69.09963583 35.09963583 69.09963583 34 68 C33.90646837 66.31198015 33.88255209 64.62004793 33.88647461 62.92944336 C33.88655014 61.84839828 33.88662567 60.76735321 33.88670349 59.65354919 C33.89186478 58.4775264 33.89702606 57.3015036 33.90234375 56.08984375 C33.9037587 54.89267227 33.90517365 53.69550079 33.90663147 52.46205139 C33.91225021 48.62050934 33.92480589 44.77902457 33.9375 40.9375 C33.94251259 38.34049563 33.94707591 35.74349035 33.95117188 33.14648438 C33.96222573 26.76430321 33.97898208 20.3821557 34 14 C33.27677048 13.80460129 32.55354095 13.60920258 31.80839539 13.40788269 C26.81849323 12.05441683 21.83845431 10.69039352 16.89453125 9.17578125 C15.39116211 8.71655273 15.39116211 8.71655273 13.85742188 8.24804688 C12.85259766 7.93931641 11.84777344 7.63058594 10.8125 7.3125 C9.76513672 6.99216797 8.71777344 6.67183594 7.63867188 6.34179688 C5.09199125 5.56267541 2.54578006 4.78205799 0 4 C0 2.68 0 1.36 0 0 Z M39 17 C39 32.84 39 48.68 39 65 C51.41992241 71.23809573 51.41992241 71.23809573 63.9296875 77.28125 C64.65697052 77.62506714 65.38425354 77.96888428 66.13357544 78.32312012 C67.62976689 79.02954334 69.12641388 79.73500263 70.62353516 80.43945312 C72.92419461 81.523173 75.22185527 82.61309629 77.51953125 83.703125 C78.98940693 84.39620757 80.45945226 85.0889305 81.9296875 85.78125 C82.61288055 86.10613403 83.29607361 86.43101807 83.99996948 86.76574707 C87.35521568 88.44151908 87.35521568 88.44151908 91 89 C91 73.16 91 57.32 91 41 C74.24294989 32.10305081 74.24294989 32.10305081 57.125 23.9375 C56.33706055 23.58051025 55.54912109 23.22352051 54.73730469 22.85571289 C49.52665046 20.54621862 44.48474039 18.8282468 39 17 Z " fill="#793CAE" transform="translate(391,328)"/>
<path d="M0 0 C0 1.32 0 2.64 0 4 C-0.54076172 4.13462646 -1.08152344 4.26925293 -1.63867188 4.40795898 C-28.38251633 11.15836985 -52.39235024 21.75633794 -77.01953125 33.96484375 C-78.1616658 34.52996674 -78.1616658 34.52996674 -79.32687378 35.10650635 C-82.33972534 36.61075562 -85.19443142 38.12962095 -88 40 C-88.33767042 42.90156324 -88.48908344 45.5999689 -88.51171875 48.5078125 C-88.53864555 49.76874222 -88.53864555 49.76874222 -88.56611633 51.05514526 C-88.62038031 53.74504551 -88.65416586 56.43476676 -88.6875 59.125 C-88.72065895 60.94663959 -88.75514727 62.7682555 -88.79101562 64.58984375 C-88.87611572 69.05976695 -88.94284956 73.52963559 -89 78 C-88.06728271 77.56131592 -87.13456543 77.12263184 -86.17358398 76.6706543 C-82.68716588 75.03127515 -79.20001367 73.39346264 -75.71264648 71.75610352 C-74.20821638 71.04949438 -72.70398121 70.34247005 -71.19995117 69.63500977 C-69.02835353 68.61363189 -66.8560411 67.59378784 -64.68359375 66.57421875 C-63.68784584 66.1052845 -63.68784584 66.1052845 -62.67198181 65.62687683 C-62.03184647 65.32679214 -61.39171112 65.02670746 -60.73217773 64.7175293 C-60.17924545 64.45771774 -59.62631317 64.19790619 -59.05662537 63.93022156 C-56.05819151 62.57401548 -53.0247973 61.2963417 -50 60 C-49.67 48.45 -49.34 36.9 -49 25 C-47.35 24.67 -45.7 24.34 -44 24 C-44 36.87 -44 49.74 -44 63 C-48.970625 65.330625 -53.94125 67.66125 -59.0625 70.0625 C-62.35568467 71.6067787 -62.35568467 71.6067787 -65.64878845 73.15122986 C-66.97530283 73.77281652 -68.3022125 74.39355995 -69.62940979 75.01368713 C-73.19389802 76.67986086 -76.75228088 78.35709526 -80.30029297 80.05810547 C-80.98538437 80.38419296 -81.67047577 80.71028046 -82.37632751 81.04624939 C-83.67458876 81.66444018 -84.97074866 82.28706999 -86.26441956 82.91481018 C-89.05457998 84.23775844 -90.86715186 85 -94 85 C-94 69.16 -94 53.32 -94 37 C-26.56799119 -0.76192493 -26.56799119 -0.76192493 0 0 Z " fill="#4C4BB2" transform="translate(634,328)"/>
<path d="M0 0 C0.66 0 1.32 0 2 0 C2.51046875 1.17755859 2.51046875 1.17755859 3.03125 2.37890625 C8.05320028 13.26425062 13.78827324 18.82155554 25 23 C25 23.66 25 24.32 25 25 C24.21496094 25.3403125 23.42992187 25.680625 22.62109375 26.03125 C11.73574938 31.05320028 6.17844446 36.78827324 2 48 C1.34 48 0.68 48 0 48 C-0.3403125 47.21496094 -0.680625 46.42992187 -1.03125 45.62109375 C-6.05320028 34.73574938 -11.78827324 29.17844446 -23 25 C-23 24.34 -23 23.68 -23 23 C-22.21496094 22.6596875 -21.42992187 22.319375 -20.62109375 21.96875 C-9.73574938 16.94679972 -4.17844446 11.21172676 0 0 Z " fill="#82858F" transform="translate(967,944)"/>
<path d="M0 0 C-0.33 1.65 -0.66 3.3 -1 5 C-2.13953125 5.27972656 -3.2790625 5.55945313 -4.453125 5.84765625 C-14.3877442 8.34481925 -24.04730379 11.2575262 -33.67480469 14.76391602 C-34.4743457 15.05451904 -35.27388672 15.34512207 -36.09765625 15.64453125 C-36.80414307 15.90596924 -37.51062988 16.16740723 -38.23852539 16.43676758 C-40 17 -40 17 -42 17 C-42 22.61 -42 28.22 -42 34 C-43.32 34 -44.64 34 -46 34 C-46 38.29 -46 42.58 -46 47 C-47.67191406 47.3403125 -49.34382812 47.680625 -51.06640625 48.03125 C-58.97794884 50.01116901 -65.81199022 53.67177426 -72.9375 57.5 C-74.23702375 58.18474593 -75.53715183 58.86834622 -76.83789062 59.55078125 C-83.37191155 62.96456459 -83.37191155 62.96456459 -89.71313477 66.71679688 C-92 68 -92 68 -95 68 C-95 66.68 -95 65.36 -95 64 C-90.94376203 61.75695071 -86.88694347 59.51495638 -82.82958984 57.27392578 C-81.45019897 56.5118439 -80.07096551 55.74947701 -78.69189453 54.98681641 C-76.70647106 53.88889297 -74.72047857 52.79200507 -72.734375 51.6953125 C-72.12068054 51.3556546 -71.50698608 51.0159967 -70.87469482 50.66604614 C-68.49563344 49.35339649 -66.15642561 48.06706284 -63.65722656 46.99560547 C-61.55722011 45.97550295 -61.55722011 45.97550295 -60.75 42.375 C-60.5025 41.26125 -60.255 40.1475 -60 39 C-58.68 39 -57.36 39 -56 39 C-56 40.32 -56 41.64 -56 43 C-54.35 43 -52.7 43 -51 43 C-51 40.36 -51 37.72 -51 35 C-52.98 35 -54.96 35 -57 35 C-57 29.39 -57 23.78 -57 18 C-53.31734353 16.57715546 -49.63298864 15.15952015 -45.94580078 13.74853516 C-44.05351398 13.02058643 -42.16535762 12.28192906 -40.27734375 11.54296875 C-10.50420773 0 -10.50420773 0 0 0 Z " fill="#3E4DB7" transform="translate(634,398)"/>
<path d="M0 0 C2.51867024 1.09225502 4.81952426 2.38586064 7.17578125 3.796875 C8.15546875 4.38017578 9.13515625 4.96347656 10.14453125 5.56445312 C11.1603125 6.17611328 12.17609375 6.78777344 13.22265625 7.41796875 C14.25390625 8.03349609 15.28515625 8.64902344 16.34765625 9.28320312 C18.89206807 10.80278241 21.43357151 12.32701072 23.97265625 13.85546875 C20.26160794 17.94002678 15.41067131 20.1021114 10.59765625 22.66796875 C9.65148437 23.19583984 8.7053125 23.72371094 7.73046875 24.26757812 C6.81265625 24.75677734 5.89484375 25.24597656 4.94921875 25.75 C4.11471191 26.20221924 3.28020508 26.65443848 2.42041016 27.12036133 C-0.82441691 28.0948451 -2.05638133 27.38941944 -5.02734375 25.85546875 C-5.85081299 25.44731934 -6.67428223 25.03916992 -7.52270508 24.61865234 C-8.37630615 24.16828613 -9.22990723 23.71791992 -10.109375 23.25390625 C-11.04072266 22.7640625 -11.97207031 22.27421875 -12.93164062 21.76953125 C-13.89134766 21.26164062 -14.85105469 20.75375 -15.83984375 20.23046875 C-16.81888672 19.71484375 -17.79792969 19.19921875 -18.80664062 18.66796875 C-21.214709 17.39932785 -23.62155675 16.12842909 -26.02734375 14.85546875 C-26.02734375 14.19546875 -26.02734375 13.53546875 -26.02734375 12.85546875 C-22.12155723 10.64810218 -18.2011481 8.46812116 -14.27734375 6.29296875 C-12.61058594 5.3503418 -12.61058594 5.3503418 -10.91015625 4.38867188 C-9.84023438 3.79892578 -8.7703125 3.20917969 -7.66796875 2.6015625 C-6.68344727 2.05169678 -5.69892578 1.50183105 -4.68457031 0.93530273 C-2.02734375 -0.14453125 -2.02734375 -0.14453125 0 0 Z " fill="#8C3EBF" transform="translate(514.02734375,273.14453125)"/>
<path d="M0 0 C1.35907355 8.84538291 2.74302369 18.33017843 0 27 C-5.46744072 33.5669536 -14.03166854 37.28702647 -22 40 C-22.66 40 -23.32 40 -24 40 C-24 30.76 -24 21.52 -24 12 C-20.41125 10.02 -16.8225 8.04 -13.125 6 C-11.99465332 5.37351562 -10.86430664 4.74703125 -9.69970703 4.1015625 C-8.81138184 3.61429687 -7.92305664 3.12703125 -7.0078125 2.625 C-5.64100342 1.87089844 -5.64100342 1.87089844 -4.24658203 1.1015625 C-2 0 -2 0 0 0 Z " fill="#7A41BE" transform="translate(540,293)"/>
<path d="M0 0 C3.61196311 1.14371297 6.96867447 2.36774779 10.3046875 4.1640625 C10.97999512 4.5245166 11.65530273 4.8849707 12.35107422 5.25634766 C13.18396973 5.70800293 14.01686523 6.1596582 14.875 6.625 C17.55625 8.06875 20.2375 9.5125 23 11 C23 20.24 23 29.48 23 39 C19.2565625 37.1746875 19.2565625 37.1746875 15.4375 35.3125 C14.66591553 34.94036377 13.89433105 34.56822754 13.09936523 34.18481445 C11.74659187 33.51644408 10.40634728 32.82242333 9.07592773 32.1105957 C7.0255967 30.98041771 7.0255967 30.98041771 4.92602539 30.08276367 C2.71345369 28.91070927 1.46915758 28.04128278 0 26 C-0.8584308 21.53469769 -0.65901963 17.21282958 -0.4375 12.6875 C-0.40591797 11.46998047 -0.37433594 10.25246094 -0.34179688 8.99804688 C-0.25939449 5.99624565 -0.14439803 2.99935347 0 0 Z " fill="#8B3FC3" transform="translate(487,294)"/>
<path d="M0 0 C3.79930739 2.11258191 6.41840236 4.94851015 8 9 C8.74573754 15.86659628 8.60821454 22.02778283 5 28 C2.22242521 31.09501191 0.08110667 32.2704434 -4 32.5625 C-7.29708033 32.38243347 -8.02364856 31.9821322 -10.8125 29.875 C-15.80989699 23.30699253 -16.8869253 18.152423 -16 10 C-13.39489286 2.45890037 -8.20762052 -1.87923992 0 0 Z " fill="#141A2C" transform="translate(658,737)"/>
<path d="M0 0 C3.51835783 1.37674872 4.66579271 2.4421747 6.60546875 5.6796875 C9.07760989 11.56573784 9.34816313 19.03524067 7.2734375 25.13671875 C5.23874818 28.42034338 2.50419582 30.49820179 -1 32 C-4.94552489 32.58763137 -6.68463193 32.16374881 -10.25 30.3125 C-14.2077064 26.98442871 -14.85216939 24.36174736 -15.40625 19.2578125 C-15.86878536 6.951121 -15.86878536 6.951121 -12.5625 2.5 C-8.78690297 -0.91772054 -4.82569881 -0.96335577 0 0 Z " fill="#111729" transform="translate(473,737)"/>
<path d="M0 0 C7.43434576 0.41324319 13.97575567 1.95443162 21 4.375 C22.03326416 4.7265918 23.06652832 5.07818359 24.13110352 5.44042969 C48.13988763 13.79288048 71.92492841 24.37486166 94 37 C93.67 38.65 93.34 40.3 93 42 C89.42748029 40.62675985 86.03709998 39.0598228 82.6328125 37.3125 C81.59237793 36.78293701 80.55194336 36.25337402 79.47998047 35.70776367 C77.81926514 34.86242065 77.81926514 34.86242065 76.125 34 C63.94787355 27.84599613 51.58165081 22.27098478 39 17 C39.01160156 17.81339844 39.02320313 18.62679688 39.03515625 19.46484375 C39.11037315 29.01739002 38.64591051 38.47281995 38 48 C37.01 47.505 37.01 47.505 36 47 C36.03255208 44.94921875 36.06510417 42.8984375 36.09765625 40.84765625 C36.20561184 38.98267859 36.20561184 38.98267859 35 38 C33.54461822 30.07625477 33.91235705 22.02419937 34 14 C33.34733154 13.82621826 32.69466309 13.65243652 32.0222168 13.47338867 C24.90740589 11.5586129 17.85514202 9.47633934 10.8125 7.3125 C9.76513672 6.99216797 8.71777344 6.67183594 7.63867188 6.34179688 C5.09199125 5.56267541 2.54578006 4.78205799 0 4 C0 2.68 0 1.36 0 0 Z " fill="#8F3DB8" transform="translate(391,328)"/>
<path d="M0 0 C8.27356309 1.26010179 16.08296684 3.31541733 24 6 C24.86931152 6.29261719 25.73862305 6.58523438 26.63427734 6.88671875 C47.01830626 13.81256641 66.39635159 22.33817973 85.4375 32.375 C86.38584717 32.86266846 87.33419434 33.35033691 88.3112793 33.8527832 C89.17664307 34.32159912 90.04200684 34.79041504 90.93359375 35.2734375 C91.69728271 35.67997559 92.46097168 36.08651367 93.24780273 36.50537109 C95.55614986 38.4743973 95.68849077 40.04824126 96 43 C92.322687 42.29963802 89.39430224 40.73788526 86.109375 38.97265625 C84.92577503 38.3433119 83.7418413 37.71459492 82.55761719 37.08642578 C81.93737671 36.75612366 81.31713623 36.42582153 80.67810059 36.08551025 C56.80184098 23.41726121 31.49159734 12.45974692 5.28833008 5.61108398 C3.5079539 5.13564586 1.74819983 4.58273328 0 4 C0 2.68 0 1.36 0 0 Z " fill="#763AB1" transform="translate(391,423)"/>
<path d="M0 0 C33.58503934 3.59438548 67.30716984 20.91985858 96 38 C96 39.32 96 40.64 96 42 C92.4002524 41.42691765 89.72449487 40.49060939 86.578125 38.6640625 C85.73121094 38.18243652 84.88429688 37.70081055 84.01171875 37.20458984 C83.10035156 36.6833252 82.18898438 36.16206055 81.25 35.625 C55.50770097 21.31848594 28.27892259 11.89587012 0 4 C0 2.68 0 1.36 0 0 Z " fill="#5C3DAE" transform="translate(391,448)"/>
<path d="M0 0 C27.07151879 3.00794653 76.05623865 19.4188525 96 39 C96 40.32 96 41.64 96 43 C90.79363782 41.48079337 86.35240781 39.14761414 81.625 36.5625 C58.5191404 24.22248728 34.10233917 13.36008867 8.69921875 6.71875 C5.75266959 5.93414067 2.88391736 4.98828483 0 4 C0 2.68 0 1.36 0 0 Z " fill="#7B3DB4" transform="translate(391,399)"/>
<path d="M0 0 C0 1.32 0 2.64 0 4 C-1.22589844 4.32871094 -2.45179688 4.65742188 -3.71484375 4.99609375 C-32.49734227 12.86982894 -60.65608213 23.29703436 -85.94848633 39.34301758 C-87.085802 40.062677 -87.085802 40.062677 -88.24609375 40.796875 C-88.90279053 41.22323242 -89.5594873 41.64958984 -90.23608398 42.08886719 C-92 43 -92 43 -95 43 C-95 41.68 -95 40.36 -95 39 C-93.62426758 37.66650391 -93.62426758 37.66650391 -91.64453125 36.4765625 C-90.89163818 36.01983154 -90.13874512 35.56310059 -89.36303711 35.0925293 C-88.10052124 34.36610229 -88.10052124 34.36610229 -86.8125 33.625 C-85.93408447 33.11042236 -85.05566895 32.59584473 -84.15063477 32.06567383 C-60.24049425 18.35380205 -28.2046959 0 0 0 Z " fill="#325BB4" transform="translate(634,448)"/>
<path d="M0 0 C0.02727345 2.66673742 0.04696948 5.33318869 0.0625 8 C0.07087891 8.74378906 0.07925781 9.48757813 0.08789062 10.25390625 C0.09767798 12.5049973 0.05768134 14.74969126 0 17 C-0.0002417 17.72832031 -0.0004834 18.45664062 -0.00073242 19.20703125 C-0.1015625 21.3125 -0.1015625 21.3125 -1 25 C-3.87109375 27.3125 -3.87109375 27.3125 -7.4375 29 C-8.61183594 29.5775 -9.78617188 30.155 -10.99609375 30.75 C-14 32 -14 32 -16 32 C-16.3125 28.6875 -16.3125 28.6875 -16 25 C-13.5 23.0625 -13.5 23.0625 -11 22 C-12.32 22 -13.64 22 -15 22 C-16.18681726 18.43954823 -16.09689832 15.56191663 -16.0625 11.8125 C-16.05347656 10.54019531 -16.04445313 9.26789063 -16.03515625 7.95703125 C-16.02355469 6.98121094 -16.01195312 6.00539063 -16 5 C-13.90163996 3.96728358 -11.79609109 2.94916283 -9.6875 1.9375 C-8.51574219 1.36902344 -7.34398437 0.80054688 -6.13671875 0.21484375 C-3 -1 -3 -1 0 0 Z " fill="#514EBD" transform="translate(584,358)"/>
<path d="M0 0 C0.66 0 1.32 0 2 0 C2 19.14 2 38.28 2 58 C-2.36274305 57.12745139 -5.71106317 56.02274603 -9.75 54.25 C-10.89984375 53.76015625 -12.0496875 53.2703125 -13.234375 52.765625 C-16 51 -16 51 -16.890625 48.296875 C-16.94476563 47.15992188 -16.94476563 47.15992188 -17 46 C-11.21631389 46.57836861 -8.71875773 48.14062114 -3 51 C-3 35.49 -3 19.98 -3 4 C-2.34 3.67 -1.68 3.34 -1 3 C-0.67 2.01 -0.34 1.02 0 0 Z " fill="#6B44B5" transform="translate(485,366)"/>
<path d="M0 0 C4.62 0 9.24 0 14 0 C14.33 0.99 14.66 1.98 15 3 C16.65 3 18.3 3 20 3 C20 4.65 20 6.3 20 8 C18.35 8.33 16.7 8.66 15 9 C15 11.64 15 14.28 15 17 C10.05 17 5.1 17 0 17 C0 11.39 0 5.78 0 0 Z " fill="#4846B7" transform="translate(555,420)"/>
<path d="M0 0 C5.55061389 0.58983034 10.75627156 1.54777134 16.125 3.0625 C16.87837646 3.27366455 17.63175293 3.4848291 18.40795898 3.70239258 C25.04507487 5.62052916 31.56084463 7.85472768 38.0625 10.1875 C39.03268066 10.53240479 40.00286133 10.87730957 41.00244141 11.23266602 C41.9001123 11.56194092 42.7977832 11.89121582 43.72265625 12.23046875 C44.52453369 12.52332764 45.32641113 12.81618652 46.15258789 13.11791992 C48 14 48 14 49 16 C48.34 16.66 47.68 17.32 47 18 C39.85774209 16.83947264 33.13887516 14.47428051 26.3125 12.125 C17.59822498 9.16856191 8.89202362 6.37955562 0 4 C0 2.68 0 1.36 0 0 Z " fill="#6D38AD" transform="translate(391,448)"/>
<path d="M0 0 C3.60654413 0.91457818 5.23318317 2.74219781 7.48828125 5.6015625 C8.44921875 7.62109375 8.44921875 7.62109375 8.44921875 12.62109375 C1.18921875 12.62109375 -6.07078125 12.62109375 -13.55078125 12.62109375 C-12.55078125 5.62109375 -12.55078125 5.62109375 -10.61328125 2.68359375 C-6.8752862 0.16616851 -4.44797723 -0.21940695 0 0 Z " fill="#1B2234" transform="translate(409.55078125,736.37890625)"/>
<path d="M0 0 C4.07464097 1.28766036 7.88745257 2.79500726 11.73828125 4.64453125 C12.80626953 5.15693359 13.87425781 5.66933594 14.97460938 6.19726562 C16.07611328 6.73029297 17.17761719 7.26332031 18.3125 7.8125 C19.40240234 8.33392578 20.49230469 8.85535156 21.61523438 9.39257812 C27.86162961 12.40121467 33.99017562 15.54172524 40 19 C39.505 21.475 39.505 21.475 39 24 C35.26300376 22.565917 31.71181172 20.90775226 28.140625 19.1015625 C27.02429688 18.53953125 25.90796875 17.9775 24.7578125 17.3984375 C22.4348608 16.22402762 20.11194366 15.04954939 17.7890625 13.875 C11.58724034 10.75270333 5.37463755 7.7533009 -1 5 C-0.67 3.35 -0.34 1.7 0 0 Z " fill="#7D3EB5" transform="translate(445,346)"/>
<path d="M0 0 C13.70641428 4.03539101 31.06365238 11.57500944 42 21 C42 22.32 42 23.64 42 25 C36.70822785 23.46286618 32.1801813 21.06303711 27.375 18.4375 C17.47107765 13.11344314 7.30688487 8.48353592 -3 4 C-2.34 3.67 -1.68 3.34 -1 3 C-0.67 2.01 -0.34 1.02 0 0 Z " fill="#6E3FAF" transform="translate(445,417)"/>
<path d="M0 0 C0.33 0 0.66 0 1 0 C1.02727345 2.66673742 1.04696948 5.33318869 1.0625 8 C1.07087891 8.74378906 1.07925781 9.48757813 1.08789062 10.25390625 C1.09767798 12.5049973 1.05768134 14.74969126 1 17 C0.9997583 17.72832031 0.9995166 18.45664062 0.99926758 19.20703125 C0.8984375 21.3125 0.8984375 21.3125 0 25 C-2.87109375 27.3125 -2.87109375 27.3125 -6.4375 29 C-7.61183594 29.5775 -8.78617188 30.155 -9.99609375 30.75 C-13 32 -13 32 -15 32 C-15.3125 28.6875 -15.3125 28.6875 -15 25 C-12.5 23.0625 -12.5 23.0625 -10 22 C-10.33 21.34 -10.66 20.68 -11 20 C-9.5437455 19.32880451 -8.08492133 18.66318193 -6.625 18 C-5.81289063 17.62875 -5.00078125 17.2575 -4.1640625 16.875 C-2 16 -2 16 0 16 C0 13.36 0 10.72 0 8 C-1.65 8.33 -3.3 8.66 -5 9 C-5.33 10.65 -5.66 12.3 -6 14 C-7.65 14 -9.3 14 -11 14 C-11 11.75 -11 11.75 -10 9 C-7.00985547 6.94304343 -3.686098 5 0 5 C0 3.35 0 1.7 0 0 Z " fill="#1A1C46" transform="translate(583,358)"/>
<path d="M0 0 C0 1.32 0 2.64 0 4 C-0.66942627 4.19110352 -1.33885254 4.38220703 -2.02856445 4.57910156 C-5.12437899 5.46537213 -8.21843109 6.35765523 -11.3125 7.25 C-12.36501953 7.55035156 -13.41753906 7.85070312 -14.50195312 8.16015625 C-20.71890532 9.95829012 -26.79794164 11.94698345 -32.84448242 14.25683594 C-35 15 -35 15 -37 15 C-37 13.35 -37 11.7 -37 10 C-8.61817989 -0.26209134 -8.61817989 -0.26209134 0 0 Z " fill="#3658B0" transform="translate(634,423)"/>
<path d="M0 0 C-0.309375 0.598125 -0.61875 1.19625 -0.9375 1.8125 C-2.10209704 4.08956772 -2.10209704 4.08956772 -3 7 C-4.48982165 7.51967188 -5.99036766 8.00885835 -7.49609375 8.48046875 C-10.08989334 9.67540591 -10.08989334 9.67540591 -12 12 C-13.78402166 18.15226179 -13.16506092 24.97606871 -13.0625 31.3125 C-13.06557558 33.12045428 -13.07269202 34.9284065 -13.08398438 36.73632812 C-13.10280315 41.15889615 -13.06619026 45.57792028 -13 50 C-13.33 50 -13.66 50 -14 50 C-14 37.46 -14 24.92 -14 12 C-14.66 12 -15.32 12 -16 12 C-16.33 26.52 -16.66 41.04 -17 56 C-16.34 56.33 -15.68 56.66 -15 57 C-15.99 57 -16.98 57 -18 57 C-18 41.16 -18 25.32 -18 9 C-2 0 -2 0 0 0 Z " fill="#543CA5" transform="translate(558,356)"/>
<path d="M0 0 C0 1.32 0 2.64 0 4 C-0.57331055 4.16081055 -1.14662109 4.32162109 -1.73730469 4.48730469 C-16.38193116 8.5804904 -16.38193116 8.5804904 -30.8203125 13.3359375 C-33 14 -33 14 -36 14 C-35.67 12.35 -35.34 10.7 -35 9 C-30.75053208 7.685773 -26.50033589 6.37391693 -22.25 5.0625 C-21.0434375 4.68931641 -19.836875 4.31613281 -18.59375 3.93164062 C-17.43359375 3.57392578 -16.2734375 3.21621094 -15.078125 2.84765625 C-14.00981445 2.51773682 -12.94150391 2.18781738 -11.84082031 1.84790039 C-7.69891937 0.61166612 -4.34277292 -0.12063258 0 0 Z " fill="#4854B0" transform="translate(635,350)"/>
<path d="M0 0 C0 1.32 0 2.64 0 4 C-1.01984985 4.2945105 -1.01984985 4.2945105 -2.06030273 4.5949707 C-5.18658252 5.49893282 -8.31204288 6.40569779 -11.4375 7.3125 C-12.50677734 7.62123047 -13.57605469 7.92996094 -14.67773438 8.24804688 C-20.22988816 9.86105791 -25.73355042 11.53021385 -31.17993164 13.47338867 C-33 14 -33 14 -36 14 C-35.67 12.35 -35.34 10.7 -35 9 C-6.27044064 -0.19941331 -6.27044064 -0.19941331 0 0 Z " fill="#4352AE" transform="translate(635,374)"/>
<path d="M0 0 C1 3 1 3 -0.22265625 5.80078125 C-3.6566031 10.5735103 -9.29646714 12.67587466 -14.4375 15.1875 C-16.49924108 16.22157399 -18.56045744 17.256695 -20.62109375 18.29296875 C-21.5330249 18.7418042 -22.44495605 19.19063965 -23.38452148 19.65307617 C-26.04907444 20.97747918 -26.04907444 20.97747918 -28.64868164 22.66918945 C-31 24 -31 24 -34 24 C-34 22.68 -34 21.36 -34 20 C-29.94376203 17.75695071 -25.88694347 15.51495638 -21.82958984 13.27392578 C-20.45019897 12.5118439 -19.07096551 11.74947701 -17.69189453 10.98681641 C-15.70647106 9.88889297 -13.72047857 8.79200507 -11.734375 7.6953125 C-11.12068054 7.3556546 -10.50698608 7.0159967 -9.87469482 6.66604614 C-7.48676651 5.34850415 -5.11158906 4.05232903 -2.64160156 2.89404297 C-0.8120395 2.10040807 -0.8120395 2.10040807 0 0 Z " fill="#4148AE" transform="translate(573,442)"/>
<path d="M0 0 C0.66 0.33 1.32 0.66 2 1 C1.67 1.33 1.34 1.66 1 2 C1.66 2.66 2.32 3.32 3 4 C2.48203857 4.26627197 1.96407715 4.53254395 1.43041992 4.80688477 C-12.09110955 11.76152678 -12.09110955 11.76152678 -24.96875 19.8203125 C-27 21 -27 21 -30 21 C-30 19.68 -30 18.36 -30 17 C-28.32275391 15.52368164 -28.32275391 15.52368164 -25.9765625 14.16015625 C-25.11933594 13.65419922 -24.26210938 13.14824219 -23.37890625 12.62695312 C-22.01572266 11.85254883 -22.01572266 11.85254883 -20.625 11.0625 C-19.75488281 10.55009766 -18.88476562 10.03769531 -17.98828125 9.50976562 C-5.053189 1.96908592 -5.053189 1.96908592 0 0 Z " fill="#3C47AA" transform="translate(569,470)"/>
<path d="M0 0 C0.99 0.33 1.98 0.66 3 1 C3 13.54 3 26.08 3 39 C4.32 39.33 5.64 39.66 7 40 C5.1875 42.5 5.1875 42.5 3 45 C2.01 45 1.02 45 0 45 C0 30.15 0 15.3 0 0 Z " fill="#5F48BC" transform="translate(541,367)"/>
<path d="M0 0 C5.82827369 0.98842068 10.87759235 3.36072873 16.25 5.75 C17.26835937 6.18054688 18.28671875 6.61109375 19.3359375 7.0546875 C20.78613281 7.70050781 20.78613281 7.70050781 22.265625 8.359375 C23.15024414 8.74577148 24.03486328 9.13216797 24.94628906 9.53027344 C27 11 27 11 27.79589844 13.66503906 C27.86325195 14.43557617 27.93060547 15.20611328 28 16 C21.84220368 15.46183965 16.70173202 12.84758241 11.1875 10.25 C10.22134766 9.81945312 9.25519531 9.38890625 8.25976562 8.9453125 C7.34259766 8.51476562 6.42542969 8.08421875 5.48046875 7.640625 C4.64410889 7.25422852 3.80774902 6.86783203 2.94604492 6.46972656 C1 5 1 5 0.2199707 2.33496094 C0.14738037 1.56442383 0.07479004 0.79388672 0 0 Z " fill="#7C3DB5" transform="translate(447,361)"/>
<path d="M0 0 C3.74422073 0.61666047 6.86021688 1.69565575 10.30078125 3.28515625 C11.76547852 3.95708008 11.76547852 3.95708008 13.25976562 4.64257812 C14.26716797 5.11115234 15.27457031 5.57972656 16.3125 6.0625 C17.33923828 6.53494141 18.36597656 7.00738281 19.42382812 7.49414062 C21.951452 8.65802325 24.47670072 9.82677855 27 11 C27 12.65 27 14.3 27 16 C21.29087016 15.03784446 16.46395517 12.68458635 11.25 10.25 C10.27933594 9.81945312 9.30867188 9.38890625 8.30859375 8.9453125 C7.38691406 8.51476562 6.46523438 8.08421875 5.515625 7.640625 C4.67290039 7.25422852 3.83017578 6.86783203 2.96191406 6.46972656 C1 5 1 5 0.21777344 2.33496094 C0.10997559 1.17915527 0.10997559 1.17915527 0 0 Z " fill="#753AB0" transform="translate(448,382)"/>
<path d="M0 0 C3.20927782 1.43539789 6.41724793 2.87369605 9.625 4.3125 C10.52863281 4.71662109 11.43226563 5.12074219 12.36328125 5.53710938 C16.95992543 7.60056644 21.51722063 9.6990385 26 12 C26 13.65 26 15.3 26 17 C22.30090527 16.39458825 19.28645598 15.34742345 15.91796875 13.71484375 C14.98662109 13.26689453 14.05527344 12.81894531 13.09570312 12.35742188 C12.13599609 11.88884766 11.17628906 11.42027344 10.1875 10.9375 C9.20845703 10.46505859 8.22941406 9.99261719 7.22070312 9.50585938 C4.81129833 8.34229316 2.40455993 7.17353704 0 6 C0 4.02 0 2.04 0 0 Z " fill="#723AAC" transform="translate(449,371)"/>
<path d="M0 0 C6.21798676 1.80886888 12.09869738 4.22999262 18 6.875 C18.76626709 7.20242188 19.53253418 7.52984375 20.32202148 7.8671875 C22.35258674 8.79950397 24.19295134 9.68504941 26 11 C27 13.7578125 27 13.7578125 27 16 C21.29087016 15.03784446 16.46395517 12.68458635 11.25 10.25 C10.27933594 9.81945312 9.30867188 9.38890625 8.30859375 8.9453125 C7.38691406 8.51476562 6.46523438 8.08421875 5.515625 7.640625 C4.67290039 7.25422852 3.83017578 6.86783203 2.96191406 6.46972656 C1 5 1 5 0.21777344 2.33496094 C0.10997559 1.17915527 0.10997559 1.17915527 0 0 Z " fill="#6E36A9" transform="translate(448,392)"/>
<path d="M0 0 C-0.33 1.65 -0.66 3.3 -1 5 C-1.81621826 5.21148682 -1.81621826 5.21148682 -2.64892578 5.42724609 C-5.14150734 6.0743739 -7.63325425 6.72466167 -10.125 7.375 C-10.9809375 7.59671875 -11.836875 7.8184375 -12.71875 8.046875 C-16.31817644 8.98826345 -19.84873683 9.94770717 -23.3671875 11.1640625 C-26 12 -26 12 -30 12 C-29.61328125 9.703125 -29.61328125 9.703125 -28 7 C-24.86111424 5.46379974 -21.55925493 4.6339273 -18.1875 3.75 C-17.28451172 3.49476563 -16.38152344 3.23953125 -15.45117188 2.9765625 C-4.79037829 0 -4.79037829 0 0 0 Z " fill="#385DB4" transform="translate(634,398)"/>
<path d="M0 0 C5.50133891 1.59085568 10.30927712 4.08821104 15.3125 6.8125 C16.54709961 7.45155273 16.54709961 7.45155273 17.80664062 8.10351562 C23.75887512 11.34706632 23.75887512 11.34706632 25.04296875 14.82421875 C25.02169922 15.90123047 25.02169922 15.90123047 25 17 C21.51700573 16.30841781 18.71044431 14.93051227 15.578125 13.27734375 C14.55332031 12.73916016 13.52851563 12.20097656 12.47265625 11.64648438 C10.87744141 10.80053711 10.87744141 10.80053711 9.25 9.9375 C8.17105469 9.36966797 7.09210938 8.80183594 5.98046875 8.21679688 C3.31826734 6.81501826 0.65822922 5.40929248 -2 4 C-1.34 2.68 -0.68 1.36 0 0 Z " fill="#5240AC" transform="translate(462,449)"/>
<path d="M0 0 C4.62 0 9.24 0 14 0 C14.33 0.99 14.66 1.98 15 3 C16.65 3 18.3 3 20 3 C20 4.65 20 6.3 20 8 C19.195625 8.12375 18.39125 8.2475 17.5625 8.375 C16.716875 8.58125 15.87125 8.7875 15 9 C14.67 9.66 14.34 10.32 14 11 C14 9.35 14 7.7 14 6 C13.01 6.33 12.02 6.66 11 7 C10.67 8.65 10.34 10.3 10 12 C8.02 12 6.04 12 4 12 C4 9.69 4 7.38 4 5 C5.32 4.67 6.64 4.34 8 4 C5.08235 2.0549 3.37462715 1.54723683 0 1 C0 0.67 0 0.34 0 0 Z " fill="#4143AF" transform="translate(555,420)"/>
<path d="M0 0 C0.33 0 0.66 0 1 0 C1 5.61 1 11.22 1 17 C2.98 17 4.96 17 7 17 C7 19.64 7 22.28 7 25 C5.35 25 3.7 25 2 25 C2 23.68 2 22.36 2 21 C-1.96 21.495 -1.96 21.495 -6 22 C-6 19.03 -6 16.06 -6 13 C-4.68 12.67 -3.36 12.34 -2 12 C-1.34 8.04 -0.68 4.08 0 0 Z " fill="#101A32" transform="translate(576,416)"/>
<path d="M0 0 C9.16595227 0.24236893 17.39678442 3.10735556 26 6 C26 7.65 26 9.3 26 11 C17.26910121 8.86602101 8.57153995 6.71981556 0 4 C0 2.68 0 1.36 0 0 Z " fill="#8D39B1" transform="translate(390,375)"/>
<path d="M0 0 C8.40193774 2.50584108 16.11941439 6.21025857 24 10 C23.67 11.32 23.34 12.64 23 14 C19.38549563 13.385789 16.27609839 12.39633734 12.91796875 10.93359375 C11.98662109 10.53076172 11.05527344 10.12792969 10.09570312 9.71289062 C9.13599609 9.29201172 8.17628906 8.87113281 7.1875 8.4375 C6.20845703 8.01275391 5.22941406 7.58800781 4.22070312 7.15039062 C1.81187093 6.10460494 -0.59490803 5.05435216 -3 4 C-2.01 3.67 -1.02 3.34 0 3 C0 2.01 0 1.02 0 0 Z " fill="#673EB2" transform="translate(438,438)"/>
<path d="M0 0 C9.05585682 0.74228335 17.43558733 2.99088203 26 6 C26 7.65 26 9.3 26 11 C17.64284994 8.74868611 9.31785366 6.39214186 1 4 C0.67 2.68 0.34 1.36 0 0 Z " fill="#8B3AA9" transform="translate(390,351)"/>
<path d="M0 0 C3.0625 0.3125 3.0625 0.3125 4.9375 1.5 C6.46909584 3.96757108 6.49072025 5.45769831 6.0625 8.3125 C4.9375 10.125 4.9375 10.125 3.0625 11.3125 C0 11.625 0 11.625 -2.9375 11.3125 C-4.9375 9.3125 -4.9375 9.3125 -5.1875 5.8125 C-4.87458101 1.43163414 -4.40975115 0.46912246 0 0 Z " fill="#0E192B" transform="translate(763.9375,393.6875)"/>
<path d="M0 0 C1.8125 1.125 1.8125 1.125 3 3 C3.3125 6.0625 3.3125 6.0625 3 9 C1 11 1 11 -2.5 11.3125 C-4.2325 11.1578125 -4.2325 11.1578125 -6 11 C-8.15502531 7.76746204 -8.46856135 6.74849077 -8 3 C-5.85607122 -0.27231235 -3.76836426 -0.56525464 0 0 Z " fill="#122237" transform="translate(752,454)"/>
<path d="M0 0 C2 2 2 2 2.3125 4.9375 C2 8 2 8 0.8125 9.875 C-1.65507108 11.40659584 -3.14519831 11.42822025 -6 11 C-7.875 9.9375 -7.875 9.9375 -9 8 C-8.8125 4.375 -8.8125 4.375 -8 1 C-5.23749964 -0.38125018 -3.05268901 -0.19079306 0 0 Z " fill="#13162B" transform="translate(266,394)"/>
<path d="M0 0 C3.0625 0.375 3.0625 0.375 5 2.0625 C6.34483625 4.98949654 6.09365662 6.36084989 5.0625 9.375 C3.0625 11.375 3.0625 11.375 0.0625 11.625 C-2.9375 11.375 -2.9375 11.375 -4.9375 9.375 C-5.1875 5.875 -5.1875 5.875 -4.9375 2.375 C-2.9375 0.375 -2.9375 0.375 0 0 Z " fill="#15152D" transform="translate(274.9375,332.625)"/>
<path d="M0 0 C2.9375 0.75 2.9375 0.75 4.9375 2.75 C5.29773622 5.55984248 5.32082602 7.13241919 3.8125 9.5625 C1.10304166 11.27849028 -0.92545684 11.083728 -4.0625 10.75 C-6.0625 8.75 -6.0625 8.75 -6.375 5.25 C-6.271875 4.095 -6.16875 2.94 -6.0625 1.75 C-3.0625 -0.25 -3.0625 -0.25 0 0 Z " fill="#11192C" transform="translate(753.0625,333.25)"/>
<path d="M0 0 C4.91441412 1.43652105 9.00238358 3.54159615 13.375 6.125 C14.01566406 6.49753906 14.65632813 6.87007813 15.31640625 7.25390625 C16.88048477 8.16434002 18.44065534 9.08148191 20 10 C20 11.32 20 12.64 20 14 C14.89545207 13.4462522 11.03424443 10.97407204 6.6875 8.4375 C5.94693359 8.01275391 5.20636719 7.58800781 4.44335938 7.15039062 C2.62531882 6.10648347 0.81216252 5.05407808 -1 4 C-0.67 2.68 -0.34 1.36 0 0 Z " fill="#4B3FAB" transform="translate(467,476)"/>
<path d="M0 0 C2.4375 0.75 2.4375 0.75 4.4375 2.75 C4.6875 5.75 4.6875 5.75 4.4375 8.75 C2.4375 10.75 2.4375 10.75 -0.5625 11 C-3.5625 10.75 -3.5625 10.75 -5.5625 8.75 C-5.875 5.25 -5.875 5.25 -5.5625 1.75 C-2.5625 -0.25 -2.5625 -0.25 0 0 Z " fill="#181A32" transform="translate(278.5625,454.25)"/>
<path d="M0 0 C0 1.98 0 3.96 0 6 C-2.12232979 7.17176518 -4.24757791 8.33754785 -6.375 9.5 C-6.97828125 9.83386719 -7.5815625 10.16773438 -8.203125 10.51171875 C-12.7734375 13 -12.7734375 13 -15 13 C-15 10.69 -15 8.38 -15 6 C-9.375 3.875 -9.375 3.875 -6 5 C-5.87625 4.360625 -5.7525 3.72125 -5.625 3.0625 C-5.41875 2.381875 -5.2125 1.70125 -5 1 C-3 0 -3 0 0 0 Z " fill="#4342A4" transform="translate(583,377)"/>
<path d="M0 0 C2.875 1.5625 2.875 1.5625 5 3 C1.4392088 6.24660374 -1.09795695 8 -6 8 C-9.375 6.1875 -9.375 6.1875 -12 4 C-12 3.34 -12 2.68 -12 2 C-7.53356104 -0.65859462 -5.03451467 -1.49964267 0 0 Z " fill="#15152D" transform="translate(517,283)"/>
<path d="M0 0 C7.21388218 0.80154246 14.12203331 2.70734444 21 5 C20.34 6.32 19.68 7.64 19 9 C14.54856736 8.35731596 10.41118353 7.29333357 6.125 5.9375 C4.97257812 5.57527344 3.82015625 5.21304687 2.6328125 4.83984375 C1.76398438 4.56269531 0.89515625 4.28554688 0 4 C0 2.68 0 1.36 0 0 Z " fill="#8339AF" transform="translate(391,399)"/>
<path d="M0 0 C2.875 0.75 2.875 0.75 3.875 1.75 C4.33191383 7.00450902 4.33191383 7.00450902 2.6875 9.6875 C0.875 10.75 0.875 10.75 -1.6875 10.5625 C-4.125 9.75 -4.125 9.75 -6.125 7.75 C-6.4883156 4.91613833 -6.4818671 3.34477849 -5 0.875 C-3.125 -0.25 -3.125 -0.25 0 0 Z " fill="#141529" transform="translate(450.125,255.25)"/>
<path d="M0 0 C4.80177769 0.61418087 8.54887801 2.61659338 12.75 4.875 C13.43449219 5.22691406 14.11898438 5.57882812 14.82421875 5.94140625 C19.8777651 8.63329529 19.8777651 8.63329529 21 12 C18.35672682 13.00579304 17.23258313 13.08377402 14.52734375 12.109375 C13.67269531 11.66078125 12.81804687 11.2121875 11.9375 10.75 C11.08027344 10.31171875 10.22304688 9.8734375 9.33984375 9.421875 C7.18573025 8.11286446 5.71854476 6.81458109 4 5 C1.90010348 3.82425289 1.90010348 3.82425289 0 3 C0 2.01 0 1.02 0 0 Z " fill="#12152A" transform="translate(448,397)"/>
<path d="M0 0 C2.4375 0.8125 2.4375 0.8125 4.4375 2.8125 C4.8008156 5.64636167 4.7943671 7.21772151 3.3125 9.6875 C0.51598948 11.36540631 -1.49940532 10.56125648 -4.5625 9.8125 C-5.89328101 3.40055513 -5.89328101 3.40055513 -4.4375 0.8125 C-2.5625 -0.1875 -2.5625 -0.1875 0 0 Z " fill="#16162D" transform="translate(578.5625,255.1875)"/>
<path d="M0 0 C2.6796875 1.109375 2.6796875 1.109375 5.875 2.75 C7.44894531 3.54664063 7.44894531 3.54664063 9.0546875 4.359375 C14.06784065 7.15184758 14.06784065 7.15184758 16 9 C16 10.32 16 11.64 16 13 C11.37324343 11.6077541 7.35313769 9.70479016 3.125 7.375 C1.97257812 6.74335938 0.82015625 6.11171875 -0.3671875 5.4609375 C-1.23601562 4.97882813 -2.10484375 4.49671875 -3 4 C-2.67 3.01 -2.34 2.02 -2 1 C-1.34 0.67 -0.68 0.34 0 0 Z " fill="#5440A7" transform="translate(471,429)"/>
<path d="M0 0 C-0.0703125 1.76171875 -0.0703125 1.76171875 -1 4 C-3.30166613 5.47459684 -5.42399816 6.65549015 -7.875 7.8125 C-8.51308594 8.13669922 -9.15117188 8.46089844 -9.80859375 8.79492188 C-14.60332106 11.13222631 -14.60332106 11.13222631 -18 10 C-17.525625 9.566875 -17.05125 9.13375 -16.5625 8.6875 C-14.76313043 6.97690387 -14.76313043 6.97690387 -14 4 C-9.62871165 0.88063194 -5.39040653 -0.53904065 0 0 Z " fill="#5E45B5" transform="translate(572,351)"/>
<path d="M0 0 C0 1.32 0 2.64 0 4 C-1.74816858 4.50636607 -3.49862263 5.00484619 -5.25 5.5 C-6.22453125 5.7784375 -7.1990625 6.056875 -8.203125 6.34375 C-11 7 -11 7 -15 7 C-15 6.34 -15 5.68 -15 5 C-15.66 4.67 -16.32 4.34 -17 4 C-15.75108386 3.51801537 -14.50081192 3.03954323 -13.25 2.5625 C-12.55390625 2.29566406 -11.8578125 2.02882813 -11.140625 1.75390625 C-7.29793578 0.40055037 -4.08542913 -0.11348414 0 0 Z " fill="#4359B8" transform="translate(635,374)"/>
<path d="M0 0 C0 1.32 0 2.64 0 4 C-1.55966218 4.508783 -3.12289241 5.00663469 -4.6875 5.5 C-5.99267578 5.91765625 -5.99267578 5.91765625 -7.32421875 6.34375 C-9.99391677 6.99850805 -12.26396684 7.11831495 -15 7 C-15 5.68 -15 4.36 -15 3 C-13.44033782 2.491217 -11.87710759 1.99336531 -10.3125 1.5 C-9.44238281 1.2215625 -8.57226562 0.943125 -7.67578125 0.65625 C-5.00608323 0.00149195 -2.73603316 -0.11831495 0 0 Z " fill="#3469C6" transform="translate(634,423)"/>
<path d="M0 0 C0.33 1.65 0.66 3.3 1 5 C-0.62249941 5.83819158 -2.24808497 6.6704116 -3.875 7.5 C-4.77992188 7.9640625 -5.68484375 8.428125 -6.6171875 8.90625 C-9 10 -9 10 -11 10 C-12.33333333 8.66666667 -13.66666667 7.33333333 -15 6 C-12.87717331 4.99539469 -10.75166979 3.99644398 -8.625 3 C-7.44164062 2.443125 -6.25828125 1.88625 -5.0390625 1.3125 C-2 0 -2 0 0 0 Z " fill="#5441AA" transform="translate(583,344)"/>
<path d="M0 0 C0.33 0 0.66 0 1 0 C1 5.61 1 11.22 1 17 C2.98 17 4.96 17 7 17 C7 19.64 7 22.28 7 25 C5.35 25 3.7 25 2 25 C0.0830427 19.37742839 -0.24889924 14.47630615 -0.125 8.5625 C-0.11597656 7.73556641 -0.10695313 6.90863281 -0.09765625 6.05664062 C-0.07431512 4.03763292 -0.03845288 2.01877644 0 0 Z " fill="#171F46" transform="translate(576,416)"/>
<path d="M0 0 C3.96 1.98 7.92 3.96 12 6 C11.67 7.32 11.34 8.64 11 10 C9.5410574 9.52269162 8.08286504 9.04308958 6.625 8.5625 C5.81289063 8.29566406 5.00078125 8.02882813 4.1640625 7.75390625 C2 7 2 7 0 6 C0 4.02 0 2.04 0 0 Z " fill="#7D3CB7" transform="translate(449,371)"/>
<path d="M0 0 C0 2.64 0 5.28 0 8 C-5.625 11 -5.625 11 -9 11 C-8.625 8.5625 -8.625 8.5625 -8 6 C-7.34 5.67 -6.68 5.34 -6 5 C-5.835 4.34 -5.67 3.68 -5.5 3 C-5.335 2.34 -5.17 1.68 -5 1 C-3 0 -3 0 0 0 Z " fill="#5351BE" transform="translate(583,366)"/>
<path d="M0 0 C1.41805831 0.28482368 2.83440379 0.57818144 4.25 0.875 C5.03890625 1.03742188 5.8278125 1.19984375 6.640625 1.3671875 C8.96831144 1.99150075 10.89031952 2.84838542 13 4 C12.67 4.99 12.34 5.98 12 7 C6.58609132 6.53328373 2.79482068 5.75702189 -2 3 C-1.34 2.01 -0.68 1.02 0 0 Z " fill="#8640BB" transform="translate(412,405)"/>
<path d="M0 0 C0 1.32 0 2.64 0 4 C-4.29 4.99 -8.58 5.98 -13 7 C-13.33 5.35 -13.66 3.7 -14 2 C-9.126739 0.4087311 -5.19209404 -0.21192221 0 0 Z " fill="#484FAC" transform="translate(634,328)"/>
<path d="M0 0 C0.33 0.99 0.66 1.98 1 3 C-0.74692795 3.67467562 -2.49768525 4.33944156 -4.25 5 C-5.71179688 5.556875 -5.71179688 5.556875 -7.203125 6.125 C-10 7 -10 7 -14 7 C-13.375 4.625 -13.375 4.625 -12 2 C-7.95371035 0.06881631 -4.44176394 -0.21151257 0 0 Z " fill="#3F5DC0" transform="translate(618,403)"/>
<path d="M0 0 C8.44646925 6.15034169 8.44646925 6.15034169 12 10 C11.34 11.65 10.68 13.3 10 15 C9.443125 14.2575 8.88625 13.515 8.3125 12.75 C6.11279004 9.94413927 6.11279004 9.94413927 3.375 7.9375 C1.03821321 6.03117393 -0.05403457 4.83789629 -1 2 C-0.67 1.34 -0.34 0.68 0 0 Z " fill="#2A4786" transform="translate(500,616)"/>
<path d="M0 0 C1.60517097 0.08733576 3.20921662 0.19552224 4.8125 0.3125 C6.15248047 0.39951172 6.15248047 0.39951172 7.51953125 0.48828125 C10.30604 1.06313581 11.24135754 1.8206856 13 4 C12.67 4.66 12.34 5.32 12 6 C10.56208484 5.85831863 9.1246763 5.71148957 7.6875 5.5625 C6.88699219 5.48128906 6.08648437 5.40007812 5.26171875 5.31640625 C3 5 3 5 0 4 C0 2.68 0 1.36 0 0 Z " fill="#983EB5" transform="translate(391,328)"/>
<path d="M0 0 C11.22 0 22.44 0 34 0 C34 0.33 34 0.66 34 1 C33.09757568 0.99363525 32.19515137 0.98727051 31.26538086 0.98071289 C27.88901799 0.97355544 24.51581197 0.99778285 21.13989258 1.04272461 C19.68422195 1.05579515 18.22838506 1.05666202 16.77270508 1.04467773 C8.240154 0.76179613 8.240154 0.76179613 0.44189453 3.62060547 C-1.2674083 5.3299083 -2.68754057 6.97471372 -4 9 C-4.66 8.67 -5.32 8.34 -6 8 C-5.195625 7.236875 -4.39125 6.47375 -3.5625 5.6875 C-0.83200976 3.20569102 -0.83200976 3.20569102 0 0 Z " fill="#151632" transform="translate(291,463)"/>
<path d="M0 0 C0.33 0 0.66 0 1 0 C1.33 2.97 1.66 5.94 2 9 C3.65 9 5.3 9 7 9 C7 10.98 7 12.96 7 15 C5.02 15.66 3.04 16.32 1 17 C-0.18681726 13.43954823 -0.09689832 10.56191663 -0.0625 6.8125 C-0.05347656 5.54019531 -0.04445313 4.26789063 -0.03515625 2.95703125 C-0.02355469 1.98121094 -0.01195312 1.00539063 0 0 Z " fill="#4848A4" transform="translate(568,363)"/>
<path d="M0 0 C0 1.32 0 2.64 0 4 C-1.4562672 4.36256858 -2.91511185 4.71479793 -4.375 5.0625 C-5.59316406 5.35833984 -5.59316406 5.35833984 -6.8359375 5.66015625 C-9 6 -9 6 -11 5 C-11 4.34 -11 3.68 -11 3 C-11.66 2.67 -12.32 2.34 -13 2 C-4.57142857 -0.28571429 -4.57142857 -0.28571429 0 0 Z " fill="#404FA7" transform="translate(635,350)"/>
<path d="M0 0 C4.455 1.98 4.455 1.98 9 4 C9 5.32 9 6.64 9 8 C4.78087253 7.5205537 2.20336822 6.83374881 -1 4 C-0.67 2.68 -0.34 1.36 0 0 Z " fill="#7439AB" transform="translate(466,369)"/>
<path d="M0 0 C0.99 0.33 1.98 0.66 3 1 C3 2.65 3 4.3 3 6 C1.18504338 5.55149342 -0.62693134 5.09090429 -2.4375 4.625 C-3.44683594 4.36976563 -4.45617187 4.11453125 -5.49609375 3.8515625 C-8 3 -8 3 -9 1 C-6.01002175 -0.49498913 -3.29957225 -0.11577446 0 0 Z " fill="#933EB3" transform="translate(413,356)"/>
<path d="M0 0 C0 2.64 0 5.28 0 8 C-1.98 8 -3.96 8 -6 8 C-6 5.69 -6 3.38 -6 1 C-3.92446352 0.4465236 -2.15634036 0 0 0 Z " fill="#141434" transform="translate(565,424)"/>
<path d="M0 0 C1.98 0 3.96 0 6 0 C6 2.31 6 4.62 6 7 C4.02 7 2.04 7 0 7 C0 4.69 0 2.38 0 0 Z " fill="#0E1332" transform="translate(581,421)"/>
<path d="M0 0 C-0.804375 0.226875 -1.60875 0.45375 -2.4375 0.6875 C-3.283125 1.120625 -4.12875 1.55375 -5 2 C-5.89386164 4.54775306 -5.89386164 4.54775306 -6 7 C-7.65 7 -9.3 7 -11 7 C-10.875 4.6875 -10.875 4.6875 -10 2 C-6.48038665 -0.3464089 -4.05504805 -1.71559725 0 0 Z " fill="#15183A" transform="translate(583,365)"/>
<path d="M0 0 C0 3.63 0 7.26 0 11 C-1.32 11 -2.64 11 -4 11 C-4 7.7 -4 4.4 -4 1 C-2 0 -2 0 0 0 Z " fill="#211E45" transform="translate(534,305)"/>
<path d="M0 0 C3.95820859 0.56545837 6.6659053 1.80902348 10 4 C9.01 4.495 9.01 4.495 8 5 C8 5.66 8 6.32 8 7 C5.25851328 6.62952882 3.41406801 6.31412056 1.1875 4.625 C0 3 0 3 0 0 Z " fill="#6943B7" transform="translate(461,425)"/>
<path d="M0 0 C0.66 1.32 1.32 2.64 2 4 C-3.625 8 -3.625 8 -7 8 C-6.875 5.6875 -6.875 5.6875 -6 3 C-2.9375 1.1875 -2.9375 1.1875 0 0 Z " fill="#4F45AE" transform="translate(546,433)"/>
<path d="M0 0 C4.875 0.875 4.875 0.875 6 2 C6.04080783 3.99958364 6.04254356 6.00045254 6 8 C4.02 7.34 2.04 6.68 0 6 C0 4.02 0 2.04 0 0 Z " fill="#7F36AC" transform="translate(436,355)"/>
<path d="M0 0 C1.67542976 0.28604898 3.34385343 0.61781233 5 1 C5 2.65 5 4.3 5 6 C3.34385343 6.38218767 1.67542976 6.71395102 0 7 C-1 6 -1 6 -1.125 3.5 C-1 1 -1 1 0 0 Z " fill="#26304D" transform="translate(484,94)"/>
<path d="M0 0 C3.465 1.98 3.465 1.98 7 4 C6.67 4.99 6.34 5.98 6 7 C2.17902761 6.46930939 -0.06171403 5.50298434 -3 3 C-2.01 2.01 -1.02 1.02 0 0 Z " fill="#5E41AE" transform="translate(471,429)"/>
<path d="M0 0 C2.97 0.495 2.97 0.495 6 1 C6 2.98 6 4.96 6 7 C3.03 6.505 3.03 6.505 0 6 C0 4.02 0 2.04 0 0 Z " fill="#7D32B1" transform="translate(436,376)"/>
<path d="M0 0 C1.65 0.33 3.3 0.66 5 1 C5.33 2.32 5.66 3.64 6 5 C4.02 5.99 4.02 5.99 2 7 C0.4375 5.75 0.4375 5.75 -1 4 C-0.6875 1.8125 -0.6875 1.8125 0 0 Z " fill="#19253F" transform="translate(630,672)"/>
<path d="M0 0 C0.66 0.66 1.32 1.32 2 2 C0.96875 1.938125 -0.0625 1.87625 -1.125 1.8125 C-7.97312892 2.14386108 -12.05851536 5.64678734 -17 10 C-15.85294484 5.53922994 -13.72351543 3.41984362 -10.01171875 0.9453125 C-6.50816936 -0.70101556 -3.81995398 -0.45321488 0 0 Z " fill="#1A8DC9" transform="translate(753,446)"/>
<path d="M0 0 C1.98 0.66 3.96 1.32 6 2 C6 3.65 6 5.3 6 7 C5.01 7.495 5.01 7.495 4 8 C1.875 7.0625 1.875 7.0625 0 6 C0 4.02 0 2.04 0 0 Z " fill="#7C30AC" transform="translate(436,365)"/>
<path d="M0 0 C0.66 0.33 1.32 0.66 2 1 C-0.86816688 4.2890924 -3.36657072 6.72392745 -7.7734375 7.46875 C-12.41557184 7.5185316 -15.92544087 7.36648868 -20 5 C-18.46279297 4.96132813 -18.46279297 4.96132813 -16.89453125 4.921875 C-15.53381301 4.86556942 -14.17313757 4.80822263 -12.8125 4.75 C-12.13896484 4.73582031 -11.46542969 4.72164063 -10.77148438 4.70703125 C-5.94306431 4.47149856 -3.45287574 3.35230654 0 0 Z " fill="#286DBC" transform="translate(720,361)"/>
<path d="M0 0 C0.66 0.33 1.32 0.66 2 1 C1.34 1.66 0.68 2.32 0 3 C0 3.99 0 4.98 0 6 C-2.64738916 7.4606285 -3.89448334 8 -7 8 C-7 6.68 -7 5.36 -7 4 C-1.7265625 0.77734375 -1.7265625 0.77734375 0 0 Z " fill="#3E42A0" transform="translate(546,458)"/>
<path d="M0 0 C2.97 0.495 2.97 0.495 6 1 C6 2.98 6 4.96 6 7 C3.03 6.505 3.03 6.505 0 6 C0 4.02 0 2.04 0 0 Z " fill="#7C35B3" transform="translate(436,386)"/>
<path d="M0 0 C2.46800047 1.15173355 4.04783565 2.04783565 6 4 C6.4140625 6.1640625 6.4140625 6.1640625 6.625 8.625 C6.69976562 9.44226563 6.77453125 10.25953125 6.8515625 11.1015625 C6.92503906 12.04128906 6.92503906 12.04128906 7 13 C5.171875 14.0546875 5.171875 14.0546875 3 15 C0.25 14.125 0.25 14.125 -2 13 C-2 12.34 -2 11.68 -2 11 C0.97 11.495 0.97 11.495 4 12 C4.33292585 7.75519536 4.43885872 5.64457375 2 2.0625 C1.34 1.381875 0.68 0.70125 0 0 Z " fill="#9C3EB4" transform="translate(421,287)"/>
<path d="M0 0 C3.6875 -0.3125 3.6875 -0.3125 7 0 C7 0.33 7 0.66 7 1 C6.10667969 1.22429687 5.21335937 1.44859375 4.29296875 1.6796875 C0.44269826 3.22344957 -1.08477719 4.93632389 -3.6875 8.125 C-5.94921875 10.8828125 -5.94921875 10.8828125 -8 13 C-8.99 13 -9.98 13 -11 13 C-10.45730469 12.48050781 -9.91460938 11.96101563 -9.35546875 11.42578125 C-4.85236693 7.13521683 -4.85236693 7.13521683 -1.4375 2 C-0.7259375 1.01 -0.7259375 1.01 0 0 Z " fill="#6A3FB1" transform="translate(605,274)"/>
<path d="M0 0 C0 1.32 0 2.64 0 4 C-2.75 4.75 -2.75 4.75 -6 5 C-8.375 3.0625 -8.375 3.0625 -10 1 C-6.59437148 0.22157062 -3.49234244 -0.09978121 0 0 Z " fill="#2F63BA" transform="translate(634,423)"/>
<path d="M0 0 C0 2.31 0 4.62 0 7 C-1.65 7.33 -3.3 7.66 -5 8 C-5.1875 5.125 -5.1875 5.125 -5 2 C-2 0 -2 0 0 0 Z " fill="#5246B4" transform="translate(555,390)"/>
<path d="M0 0 C1.98 0.495 1.98 0.495 4 1 C4.33 2.65 4.66 4.3 5 6 C3.35 6.33 1.7 6.66 0 7 C-1.125 2.25 -1.125 2.25 0 0 Z " fill="#222947" transform="translate(433,199)"/>
<path d="M0 0 C0.99 0.33 1.98 0.66 3 1 C3 2.65 3 4.3 3 6 C1.68 6.33 0.36 6.66 -1 7 C-1.66 5.35 -2.32 3.7 -3 2 C-2.01 1.34 -1.02 0.68 0 0 Z " fill="#171E36" transform="translate(276,16)"/>
<path d="M0 0 C0.33 0.99 0.66 1.98 1 3 C-0.9375 6.1875 -0.9375 6.1875 -3 9 C-4.98 8.34 -6.96 7.68 -9 7 C-6.98928293 5.42015087 -5.11803264 4.05733014 -2.8125 2.9375 C-0.82107843 2.13297839 -0.82107843 2.13297839 0 0 Z " fill="#3943A3" transform="translate(573,442)"/>
<path d="M0 0 C1.98 0.66 3.96 1.32 6 2 C6 2.99 6 3.98 6 5 C4.25 5.6875 4.25 5.6875 2 6 C-0.25 4.5625 -0.25 4.5625 -2 3 C-1.34 2.01 -0.68 1.02 0 0 Z " fill="#171835" transform="translate(452,368)"/>
<path d="M0 0 C-0.33 1.65 -0.66 3.3 -1 5 C-2.32 5 -3.64 5 -5 5 C-5.33 3.35 -5.66 1.7 -6 0 C-3.50907189 -1.24546405 -2.58919267 -0.7767578 0 0 Z " fill="#1D2844" transform="translate(898,269)"/>
<path d="M0 0 C0.66 0.33 1.32 0.66 2 1 C0.7625 2.299375 0.7625 2.299375 -0.5 3.625 C-2.62461185 6.14350056 -2.98488996 6.80356943 -3.25 10.25 C-3.1675 11.1575 -3.085 12.065 -3 13 C-3.33 13.66 -3.66 14.32 -4 15 C-4.66 15 -5.32 15 -6 15 C-6.45826062 9.2717423 -5.55825861 6.5001506 -2 2 C-1.34 1.34 -0.68 0.68 0 0 Z " fill="#9A3CAD" transform="translate(442,249)"/>
<path d="M0 0 C0.99 0.33 1.98 0.66 3 1 C3 2.98 3 4.96 3 7 C1.35 6.67 -0.3 6.34 -2 6 C-1.125 1.125 -1.125 1.125 0 0 Z " fill="#22334E" transform="translate(858,157)"/>
<path d="M0 0 C0.33 0.66 0.66 1.32 1 2 C1.99 2.33 2.98 2.66 4 3 C3.67 4.32 3.34 5.64 3 7 C1.35 6.67 -0.3 6.34 -2 6 C-2 4.35 -2 2.7 -2 1 C-1.34 0.67 -0.68 0.34 0 0 Z " fill="#1E273F" transform="translate(377,965)"/>
<path d="M0 0 C0 1.98 0 3.96 0 6 C-1.65 6 -3.3 6 -5 6 C-5.33 4.68 -5.66 3.36 -6 2 C-3 0 -3 0 0 0 Z " fill="#4E4DB9" transform="translate(583,377)"/>
<path d="M0 0 C1.65 0 3.3 0 5 0 C5 1.65 5 3.3 5 5 C3.35 5.33 1.7 5.66 0 6 C0 4.02 0 2.04 0 0 Z " fill="#373D5A" transform="translate(911,373)"/>
<path d="M0 0 C1.32 0.33 2.64 0.66 4 1 C4 3.31 4 5.62 4 8 C2.68 7.67 1.36 7.34 0 7 C0 4.69 0 2.38 0 0 Z " fill="#121424" transform="translate(493,305)"/>
<path d="M0 0 C1.98 1.32 3.96 2.64 6 4 C5.34 5.32 4.68 6.64 4 8 C1.69 6.35 -0.62 4.7 -3 3 C-2.01 2.67 -1.02 2.34 0 2 C0 1.34 0 0.68 0 0 Z " fill="#0F1832" transform="translate(521,608)"/>
<path d="M0 0 C2.475 0.495 2.475 0.495 5 1 C4.67 2.65 4.34 4.3 4 6 C2.68 6 1.36 6 0 6 C0 4.02 0 2.04 0 0 Z " fill="#323B59" transform="translate(325,538)"/>
<path d="M0 0 C0 1.98 0 3.96 0 6 C-1.65 6.33 -3.3 6.66 -5 7 C-5.1875 4.625 -5.1875 4.625 -5 2 C-2 0 -2 0 0 0 Z " fill="#5241AD" transform="translate(555,380)"/>
<path d="M0 0 C1.32 0 2.64 0 4 0 C4 1.98 4 3.96 4 6 C2.35 5.67 0.7 5.34 -1 5 C-0.67 3.35 -0.34 1.7 0 0 Z " fill="#3F4465" transform="translate(833,569)"/>
<path d="M0 0 C1.32 0 2.64 0 4 0 C4.5625 1.9375 4.5625 1.9375 5 4 C4 5 4 5 1.4375 5.0625 C0.2309375 5.0315625 0.2309375 5.0315625 -1 5 C-0.67 3.35 -0.34 1.7 0 0 Z " fill="#252A47" transform="translate(492,506)"/>
<path d="M0 0 C2.475 0.495 2.475 0.495 5 1 C4.67 2.65 4.34 4.3 4 6 C2.68 5.67 1.36 5.34 0 5 C0 3.35 0 1.7 0 0 Z " fill="#1C2542" transform="translate(1013,477)"/>
<path d="M0 0 C2.31 0 4.62 0 7 0 C7 1.32 7 2.64 7 4 C5.02 4 3.04 4 1 4 C0.67 2.68 0.34 1.36 0 0 Z " fill="#4E5AB8" transform="translate(627,328)"/>
<path d="M0 0 C1.67542976 0.28604898 3.34385343 0.61781233 5 1 C3.68 1.33 2.36 1.66 1 2 C1 4.31 1 6.62 1 9 C4.465 8.505 4.465 8.505 8 8 C8 8.66 8 9.32 8 10 C5.36 10 2.72 10 0 10 C-0.19412181 8.52168779 -0.38012131 7.04230684 -0.5625 5.5625 C-0.66691406 4.73878906 -0.77132812 3.91507812 -0.87890625 3.06640625 C-0.91886719 2.38449219 -0.95882812 1.70257813 -1 1 C-0.67 0.67 -0.34 0.34 0 0 Z " fill="#3C3797" transform="translate(558,423)"/>
<path d="M0 0 C0.33 0 0.66 0 1 0 C1 1.65 1 3.3 1 5 C0.34 5 -0.32 5 -1 5 C-1 5.66 -1 6.32 -1 7 C-4 8 -4 8 -7 7 C-7 6.34 -7 5.68 -7 5 C-6.34 5 -5.68 5 -5 5 C-5 4.34 -5 3.68 -5 3 C-3.35 3.33 -1.7 3.66 0 4 C0 2.68 0 1.36 0 0 Z " fill="#1B1A3A" transform="translate(475,384)"/>
<path d="M0 0 C-0.75 1.9375 -0.75 1.9375 -2 4 C-4.125 4.75 -4.125 4.75 -6 5 C-6 3.35 -6 1.7 -6 0 C-3.50907189 -1.24546405 -2.58919267 -0.7767578 0 0 Z " fill="#4F4AB7" transform="translate(575,384)"/>
<path d="M0 0 C3.55780196 0.60990891 6.6828589 1.5783681 10 3 C6.99580359 4.0013988 4.12290635 4.51421457 1 5 C0.67 3.35 0.34 1.7 0 0 Z " fill="#7835AE" transform="translate(447,361)"/>
<path d="M0 0 C1.32 0 2.64 0 4 0 C4 1.65 4 3.3 4 5 C2.35 5 0.7 5 -1 5 C-0.67 3.35 -0.34 1.7 0 0 Z " fill="#565373" transform="translate(345,843)"/>
<path d="M0 0 C1.65 0 3.3 0 5 0 C4.67 1.65 4.34 3.3 4 5 C2.68 5 1.36 5 0 5 C0 3.35 0 1.7 0 0 Z " fill="#4C5171" transform="translate(57,659)"/>
<path d="M0 0 C1.65 0 3.3 0 5 0 C4.67 1.65 4.34 3.3 4 5 C2.68 5 1.36 5 0 5 C0 3.35 0 1.7 0 0 Z " fill="#4D5174" transform="translate(49,605)"/>
<path d="M0 0 C1.32 0 2.64 0 4 0 C4 1.65 4 3.3 4 5 C2.35 5 0.7 5 -1 5 C-0.67 3.35 -0.34 1.7 0 0 Z " fill="#3F4460" transform="translate(180,514)"/>
<path d="M0 0 C1.65 0 3.3 0 5 0 C5 1.65 5 3.3 5 5 C3.35 4.67 1.7 4.34 0 4 C0 2.68 0 1.36 0 0 Z " fill="#313C59" transform="translate(903,287)"/>
<path d="M0 0 C1.65 0 3.3 0 5 0 C4.67 1.65 4.34 3.3 4 5 C2.68 5 1.36 5 0 5 C0 3.35 0 1.7 0 0 Z " fill="#303856" transform="translate(224,206)"/>
<path d="M0 0 C1.11375 0.1546875 1.11375 0.1546875 2.25 0.3125 C1.46625 0.93125 0.6825 1.55 -0.125 2.1875 C-3.8677024 5.2173067 -5.00325185 6.58309507 -5.75 11.3125 C-6.08 11.3125 -6.41 11.3125 -6.75 11.3125 C-7.09718988 7.58020881 -6.98503152 5.71292406 -5.0625 2.4375 C-2.75 0.3125 -2.75 0.3125 0 0 Z " fill="#9039BD" transform="translate(301.75,419.6875)"/>
<path d="M0 0 C1.32 0.33 2.64 0.66 4 1 C3.01 1.33 2.02 1.66 1 2 C0.67 1.34 0.34 0.68 0 0 Z M4 2 C4 2.66 4 3.32 4 4 C1.69 4.66 -0.62 5.32 -3 6 C-3 5.01 -3 4.02 -3 3 C-0.53721199 1.768606 1.2795055 1.92840804 4 2 Z " fill="#5A50B9" transform="translate(596,338)"/>
<path d="M0 0 C-2 2 -2 2 -3.875 2.265625 C-4.57625 2.26046875 -5.2775 2.2553125 -6 2.25 C-6.70125 2.25515625 -7.4025 2.2603125 -8.125 2.265625 C-10 2 -10 2 -12 0 C-7.74433453 -1.16063604 -4.3164922 -0.76173392 0 0 Z " fill="#9D3AAC" transform="translate(269,411)"/>
<path d="M0 0 C2.97 0.495 2.97 0.495 6 1 C5.01 1.495 5.01 1.495 4 2 C4 2.66 4 3.32 4 4 C2.35 4 0.7 4 -1 4 C-1.33 3.34 -1.66 2.68 -2 2 C-1.34 2 -0.68 2 0 2 C0 1.34 0 0.68 0 0 Z " fill="#7639B5" transform="translate(406,452)"/>
<path d="M0 0 C1.32 0 2.64 0 4 0 C4 1.32 4 2.64 4 4 C3.01 4 2.02 4 1 4 C0.67 4.99 0.34 5.98 0 7 C0 6.01 0 5.02 0 4 C-0.66 3.67 -1.32 3.34 -2 3 C-1.34 3 -0.68 3 0 3 C0 2.01 0 1.02 0 0 Z " fill="#192A46" transform="translate(634,444)"/>
<path d="M0 0 C1.32 0 2.64 0 4 0 C4 1.65 4 3.3 4 5 C2.68 5 1.36 5 0 5 C0 3.35 0 1.7 0 0 Z " fill="#3C4161" transform="translate(163,678)"/>
<path d="M0 0 C1.65 0 3.3 0 5 0 C5 1.32 5 2.64 5 4 C3.35 4 1.7 4 0 4 C0 2.68 0 1.36 0 0 Z " fill="#4C5777" transform="translate(810,552)"/>
<path d="M0 0 C2.97 0.495 2.97 0.495 6 1 C5.67 1.99 5.34 2.98 5 4 C3.35 4 1.7 4 0 4 C0 2.68 0 1.36 0 0 Z " fill="#A540BF" transform="translate(391,328)"/>
<path d="M0 0 C2.625 0.375 2.625 0.375 5 1 C2.37352812 2.75098126 -0.28775382 4.38731308 -3 6 C-2.42655063 3.13275314 -2.1385485 2.1385485 0 0 Z " fill="#AC3FBA" transform="translate(416,273)"/>
<path d="M0 0 C1.65 0 3.3 0 5 0 C5 1.32 5 2.64 5 4 C3.35 3.67 1.7 3.34 0 3 C0 2.01 0 1.02 0 0 Z " fill="#202743" transform="translate(86,713)"/>
<path d="M0 0 C1.65 0.33 3.3 0.66 5 1 C4.67 1.99 4.34 2.98 4 4 C2.35 4 0.7 4 -1 4 C-0.67 2.68 -0.34 1.36 0 0 Z " fill="#803EBA" transform="translate(401,426)"/>
<path d="M0 0 C1.32 0.33 2.64 0.66 4 1 C4 2.32 4 3.64 4 5 C2.68 5 1.36 5 0 5 C0 3.35 0 1.7 0 0 Z " fill="#212F4D" transform="translate(815,24)"/>
<path d="M0 0 C0.99 0 1.98 0 3 0 C2.67 1.65 2.34 3.3 2 5 C1.01 5 0.02 5 -1 5 C-0.67 3.35 -0.34 1.7 0 0 Z " fill="#18223A" transform="translate(590,812)"/>
<path d="M0 0 C4.455 1.98 4.455 1.98 9 4 C6.1080406 4.96398647 4.0005625 5 1 5 C0.67 3.35 0.34 1.7 0 0 Z " fill="#141831" transform="translate(461,453)"/>
<path d="M0 0 C0 1.32 0 2.64 0 4 C-1.32 4 -2.64 4 -4 4 C-4 3.34 -4 2.68 -4 2 C-4.66 1.67 -5.32 1.34 -6 1 C-4 0 -4 0 0 0 Z " fill="#2F6FC2" transform="translate(634,448)"/>
<path d="M0 0 C2.475 0.495 2.475 0.495 5 1 C4.67 1.99 4.34 2.98 4 4 C2.68 4 1.36 4 0 4 C0 2.68 0 1.36 0 0 Z " fill="#16213C" transform="translate(792,357)"/>
<path d="M0 0 C2 1.3125 2 1.3125 4 3 C4 3.99 4 4.98 4 6 C3.01 6 2.02 6 1 6 C-0.0625 4.125 -0.0625 4.125 -1 2 C-0.67 1.34 -0.34 0.68 0 0 Z " fill="#263F71" transform="translate(500,616)"/>
<path d="M0 0 C-0.33 1.32 -0.66 2.64 -1 4 C-2.9375 3.6875 -2.9375 3.6875 -5 3 C-5.33 2.01 -5.66 1.02 -6 0 C-3 -1 -3 -1 0 0 Z " fill="#202353" transform="translate(578,378)"/>
</svg>
